M48
;DRILL file {KiCad 4.0.4-stable} date 03/17/17 15:12:20
;FORMAT={-:-/ absolute / metric / decimal}
FMAT,2
METRIC,TZ
T1C0.400
T2C0.762
T3C0.800
T4C1.000
%
G90
G05
M71
T1
X126.34Y-93.193
X127.432Y-102.337
X128.549Y-99.924
X128.575Y-97.942
X128.622Y-97.018
X130.226Y-91.516
X130.251Y-93.701
X132.817Y-97.942
X132.994Y-96.393
X133.325Y-94.717
X134.341Y-91.618
X135.992Y-91.592
X137.465Y-92.812
X137.973Y-96.876
X143.002Y-93.218
X143.713Y-85.014
X144.323Y-94.767
X144.526Y-90.729
T2
X131.572Y-84.988
X134.112Y-84.988
X136.652Y-84.988
X139.192Y-84.988
T3
X129.002Y-89.934
X129.002Y-107.034
X131.002Y-89.934
X131.002Y-107.034
X133.002Y-89.934
X133.002Y-107.034
X135.002Y-89.934
X135.002Y-107.034
X137.002Y-89.934
X137.002Y-107.034
X139.002Y-89.934
X139.002Y-107.034
X141.002Y-89.934
X141.002Y-107.034
X143.002Y-89.934
X143.002Y-107.034
T4
X124.46Y-88.9
X124.46Y-91.44
X124.46Y-93.98
X124.46Y-96.52
X124.46Y-99.06
X124.46Y-101.6
X124.46Y-104.14
X124.46Y-106.68
X147.32Y-88.9
X147.32Y-91.44
X147.32Y-93.98
X147.32Y-96.52
X147.32Y-99.06
X147.32Y-101.6
X147.32Y-104.14
X147.32Y-106.68
T0
M30
