G04 #@! TF.FileFunction,Soldermask,Top*
%FSLAX46Y46*%
G04 Gerber Fmt 4.6, Leading zero omitted, Abs format (unit mm)*
G04 Created by KiCad (PCBNEW 4.0.4-stable) date 03/17/17 15:09:56*
%MOMM*%
%LPD*%
G01*
G04 APERTURE LIST*
%ADD10C,0.100000*%
%ADD11R,1.670000X4.591000*%
%ADD12R,1.670000X4.083000*%
%ADD13R,2.400000X2.000000*%
%ADD14R,2.100000X2.100000*%
%ADD15O,2.100000X2.100000*%
%ADD16R,1.960000X1.050000*%
%ADD17C,1.924000*%
%ADD18R,2.100000X2.400000*%
%ADD19R,2.127200X2.400000*%
%ADD20C,2.127200*%
G04 APERTURE END LIST*
D10*
D11*
X124472700Y-84315300D03*
X128765300Y-84315300D03*
D12*
X126619000Y-84569300D03*
D11*
X124472700Y-84315300D03*
X128765300Y-84315300D03*
D13*
X128149600Y-92811600D03*
X132149600Y-92811600D03*
X135871200Y-99847400D03*
X139871200Y-99847400D03*
X135871200Y-96951800D03*
X139871200Y-96951800D03*
X135972800Y-92913200D03*
X139972800Y-92913200D03*
D14*
X147320000Y-88900000D03*
D15*
X147320000Y-91440000D03*
X147320000Y-93980000D03*
X147320000Y-96520000D03*
X147320000Y-99060000D03*
X147320000Y-101600000D03*
X147320000Y-104140000D03*
X147320000Y-106680000D03*
D14*
X124460000Y-88900000D03*
D15*
X124460000Y-91440000D03*
X124460000Y-93980000D03*
X124460000Y-96520000D03*
X124460000Y-99060000D03*
X124460000Y-101600000D03*
X124460000Y-104140000D03*
X124460000Y-106680000D03*
D16*
X128621800Y-97017800D03*
X128621800Y-97967800D03*
X128621800Y-98917800D03*
X131321800Y-98917800D03*
X131321800Y-97017800D03*
D17*
X131572000Y-84988400D03*
X134112000Y-84988400D03*
X136652000Y-84988400D03*
X139192000Y-84988400D03*
D18*
X143002000Y-93148400D03*
X143002000Y-97148400D03*
D19*
X143002000Y-107034000D03*
D20*
X141002000Y-107034000D03*
X139002000Y-107034000D03*
X137002000Y-107034000D03*
X135002000Y-107034000D03*
X133002000Y-107034000D03*
X131002000Y-107034000D03*
X129002000Y-107034000D03*
X129002000Y-89934000D03*
X131002000Y-89934000D03*
X133002000Y-89934000D03*
X135002000Y-89934000D03*
X137002000Y-89934000D03*
X139002000Y-89934000D03*
X141002000Y-89934000D03*
X143002000Y-89934000D03*
M02*
