G04 #@! TF.FileFunction,Legend,Bot*
%FSLAX46Y46*%
G04 Gerber Fmt 4.6, Leading zero omitted, Abs format (unit mm)*
G04 Created by KiCad (PCBNEW 4.0.4-stable) date 03/17/17 15:09:56*
%MOMM*%
%LPD*%
G01*
G04 APERTURE LIST*
%ADD10C,0.100000*%
%ADD11C,0.150000*%
%ADD12C,0.200000*%
%ADD13C,0.120000*%
%ADD14C,0.160000*%
G04 APERTURE END LIST*
D10*
D11*
X146294314Y-107135562D02*
X146151457Y-107183181D01*
X145913361Y-107183181D01*
X145818123Y-107135562D01*
X145770504Y-107087943D01*
X145722885Y-106992705D01*
X145722885Y-106897467D01*
X145770504Y-106802229D01*
X145818123Y-106754610D01*
X145913361Y-106706990D01*
X146103838Y-106659371D01*
X146199076Y-106611752D01*
X146246695Y-106564133D01*
X146294314Y-106468895D01*
X146294314Y-106373657D01*
X146246695Y-106278419D01*
X146199076Y-106230800D01*
X146103838Y-106183181D01*
X145865742Y-106183181D01*
X145722885Y-106230800D01*
X144722885Y-107087943D02*
X144770504Y-107135562D01*
X144913361Y-107183181D01*
X145008599Y-107183181D01*
X145151457Y-107135562D01*
X145246695Y-107040324D01*
X145294314Y-106945086D01*
X145341933Y-106754610D01*
X145341933Y-106611752D01*
X145294314Y-106421276D01*
X145246695Y-106326038D01*
X145151457Y-106230800D01*
X145008599Y-106183181D01*
X144913361Y-106183181D01*
X144770504Y-106230800D01*
X144722885Y-106278419D01*
X144294314Y-107183181D02*
X144294314Y-106183181D01*
X143722885Y-107183181D02*
X144151457Y-106611752D01*
X143722885Y-106183181D02*
X144294314Y-106754610D01*
X146132371Y-104465381D02*
X146132371Y-103465381D01*
X145799037Y-104179667D01*
X145465704Y-103465381D01*
X145465704Y-104465381D01*
X144989514Y-104465381D02*
X144989514Y-103798714D01*
X144989514Y-103465381D02*
X145037133Y-103513000D01*
X144989514Y-103560619D01*
X144941895Y-103513000D01*
X144989514Y-103465381D01*
X144989514Y-103560619D01*
X144560943Y-104417762D02*
X144465705Y-104465381D01*
X144275229Y-104465381D01*
X144179990Y-104417762D01*
X144132371Y-104322524D01*
X144132371Y-104274905D01*
X144179990Y-104179667D01*
X144275229Y-104132048D01*
X144418086Y-104132048D01*
X144513324Y-104084429D01*
X144560943Y-103989190D01*
X144560943Y-103941571D01*
X144513324Y-103846333D01*
X144418086Y-103798714D01*
X144275229Y-103798714D01*
X144179990Y-103846333D01*
X143560943Y-104465381D02*
X143656181Y-104417762D01*
X143703800Y-104370143D01*
X143751419Y-104274905D01*
X143751419Y-103989190D01*
X143703800Y-103893952D01*
X143656181Y-103846333D01*
X143560943Y-103798714D01*
X143418085Y-103798714D01*
X143322847Y-103846333D01*
X143275228Y-103893952D01*
X143227609Y-103989190D01*
X143227609Y-104274905D01*
X143275228Y-104370143D01*
X143322847Y-104417762D01*
X143418085Y-104465381D01*
X143560943Y-104465381D01*
X146183171Y-102026981D02*
X146183171Y-101026981D01*
X145849837Y-101741267D01*
X145516504Y-101026981D01*
X145516504Y-102026981D01*
X144897457Y-102026981D02*
X144992695Y-101979362D01*
X145040314Y-101931743D01*
X145087933Y-101836505D01*
X145087933Y-101550790D01*
X145040314Y-101455552D01*
X144992695Y-101407933D01*
X144897457Y-101360314D01*
X144754599Y-101360314D01*
X144659361Y-101407933D01*
X144611742Y-101455552D01*
X144564123Y-101550790D01*
X144564123Y-101836505D01*
X144611742Y-101931743D01*
X144659361Y-101979362D01*
X144754599Y-102026981D01*
X144897457Y-102026981D01*
X144183171Y-101979362D02*
X144087933Y-102026981D01*
X143897457Y-102026981D01*
X143802218Y-101979362D01*
X143754599Y-101884124D01*
X143754599Y-101836505D01*
X143802218Y-101741267D01*
X143897457Y-101693648D01*
X144040314Y-101693648D01*
X144135552Y-101646029D01*
X144183171Y-101550790D01*
X144183171Y-101503171D01*
X144135552Y-101407933D01*
X144040314Y-101360314D01*
X143897457Y-101360314D01*
X143802218Y-101407933D01*
X143326028Y-102026981D02*
X143326028Y-101360314D01*
X143326028Y-101026981D02*
X143373647Y-101074600D01*
X143326028Y-101122219D01*
X143278409Y-101074600D01*
X143326028Y-101026981D01*
X143326028Y-101122219D01*
X146170495Y-99563181D02*
X146170495Y-98563181D01*
X145599066Y-99563181D01*
X145599066Y-98563181D01*
X145170495Y-99515562D02*
X145027638Y-99563181D01*
X144789542Y-99563181D01*
X144694304Y-99515562D01*
X144646685Y-99467943D01*
X144599066Y-99372705D01*
X144599066Y-99277467D01*
X144646685Y-99182229D01*
X144694304Y-99134610D01*
X144789542Y-99086990D01*
X144980019Y-99039371D01*
X145075257Y-98991752D01*
X145122876Y-98944133D01*
X145170495Y-98848895D01*
X145170495Y-98753657D01*
X145122876Y-98658419D01*
X145075257Y-98610800D01*
X144980019Y-98563181D01*
X144741923Y-98563181D01*
X144599066Y-98610800D01*
X144218114Y-99515562D02*
X144075257Y-99563181D01*
X143837161Y-99563181D01*
X143741923Y-99515562D01*
X143694304Y-99467943D01*
X143646685Y-99372705D01*
X143646685Y-99277467D01*
X143694304Y-99182229D01*
X143741923Y-99134610D01*
X143837161Y-99086990D01*
X144027638Y-99039371D01*
X144122876Y-98991752D01*
X144170495Y-98944133D01*
X144218114Y-98848895D01*
X144218114Y-98753657D01*
X144170495Y-98658419D01*
X144122876Y-98610800D01*
X144027638Y-98563181D01*
X143789542Y-98563181D01*
X143646685Y-98610800D01*
X146349886Y-96975562D02*
X146207029Y-97023181D01*
X145968933Y-97023181D01*
X145873695Y-96975562D01*
X145826076Y-96927943D01*
X145778457Y-96832705D01*
X145778457Y-96737467D01*
X145826076Y-96642229D01*
X145873695Y-96594610D01*
X145968933Y-96546990D01*
X146159410Y-96499371D01*
X146254648Y-96451752D01*
X146302267Y-96404133D01*
X146349886Y-96308895D01*
X146349886Y-96213657D01*
X146302267Y-96118419D01*
X146254648Y-96070800D01*
X146159410Y-96023181D01*
X145921314Y-96023181D01*
X145778457Y-96070800D01*
X145349886Y-97023181D02*
X145349886Y-96023181D01*
X145111791Y-96023181D01*
X144968933Y-96070800D01*
X144873695Y-96166038D01*
X144826076Y-96261276D01*
X144778457Y-96451752D01*
X144778457Y-96594610D01*
X144826076Y-96785086D01*
X144873695Y-96880324D01*
X144968933Y-96975562D01*
X145111791Y-97023181D01*
X145349886Y-97023181D01*
X144397505Y-96737467D02*
X143921314Y-96737467D01*
X144492743Y-97023181D02*
X144159410Y-96023181D01*
X143826076Y-97023181D01*
X146072076Y-94384762D02*
X145929219Y-94432381D01*
X145691123Y-94432381D01*
X145595885Y-94384762D01*
X145548266Y-94337143D01*
X145500647Y-94241905D01*
X145500647Y-94146667D01*
X145548266Y-94051429D01*
X145595885Y-94003810D01*
X145691123Y-93956190D01*
X145881600Y-93908571D01*
X145976838Y-93860952D01*
X146024457Y-93813333D01*
X146072076Y-93718095D01*
X146072076Y-93622857D01*
X146024457Y-93527619D01*
X145976838Y-93480000D01*
X145881600Y-93432381D01*
X145643504Y-93432381D01*
X145500647Y-93480000D01*
X144500647Y-94337143D02*
X144548266Y-94384762D01*
X144691123Y-94432381D01*
X144786361Y-94432381D01*
X144929219Y-94384762D01*
X145024457Y-94289524D01*
X145072076Y-94194286D01*
X145119695Y-94003810D01*
X145119695Y-93860952D01*
X145072076Y-93670476D01*
X145024457Y-93575238D01*
X144929219Y-93480000D01*
X144786361Y-93432381D01*
X144691123Y-93432381D01*
X144548266Y-93480000D01*
X144500647Y-93527619D01*
X143595885Y-94432381D02*
X144072076Y-94432381D01*
X144072076Y-93432381D01*
X145745104Y-90990800D02*
X145840342Y-90943181D01*
X145983199Y-90943181D01*
X146126057Y-90990800D01*
X146221295Y-91086038D01*
X146268914Y-91181276D01*
X146316533Y-91371752D01*
X146316533Y-91514610D01*
X146268914Y-91705086D01*
X146221295Y-91800324D01*
X146126057Y-91895562D01*
X145983199Y-91943181D01*
X145887961Y-91943181D01*
X145745104Y-91895562D01*
X145697485Y-91847943D01*
X145697485Y-91514610D01*
X145887961Y-91514610D01*
X145268914Y-91943181D02*
X145268914Y-90943181D01*
X144697485Y-91943181D01*
X144697485Y-90943181D01*
X144221295Y-91943181D02*
X144221295Y-90943181D01*
X143983200Y-90943181D01*
X143840342Y-90990800D01*
X143745104Y-91086038D01*
X143697485Y-91181276D01*
X143649866Y-91371752D01*
X143649866Y-91514610D01*
X143697485Y-91705086D01*
X143745104Y-91800324D01*
X143840342Y-91895562D01*
X143983200Y-91943181D01*
X144221295Y-91943181D01*
X140153514Y-86765171D02*
X140046371Y-86800886D01*
X139867800Y-86800886D01*
X139796371Y-86765171D01*
X139760657Y-86729457D01*
X139724942Y-86658029D01*
X139724942Y-86586600D01*
X139760657Y-86515171D01*
X139796371Y-86479457D01*
X139867800Y-86443743D01*
X140010657Y-86408029D01*
X140082085Y-86372314D01*
X140117800Y-86336600D01*
X140153514Y-86265171D01*
X140153514Y-86193743D01*
X140117800Y-86122314D01*
X140082085Y-86086600D01*
X140010657Y-86050886D01*
X139832085Y-86050886D01*
X139724942Y-86086600D01*
X139403514Y-86800886D02*
X139403514Y-86050886D01*
X139224942Y-86050886D01*
X139117799Y-86086600D01*
X139046371Y-86158029D01*
X139010656Y-86229457D01*
X138974942Y-86372314D01*
X138974942Y-86479457D01*
X139010656Y-86622314D01*
X139046371Y-86693743D01*
X139117799Y-86765171D01*
X139224942Y-86800886D01*
X139403514Y-86800886D01*
X138689228Y-86586600D02*
X138332085Y-86586600D01*
X138760656Y-86800886D02*
X138510656Y-86050886D01*
X138260656Y-86800886D01*
X137595657Y-86765171D02*
X137488514Y-86800886D01*
X137309943Y-86800886D01*
X137238514Y-86765171D01*
X137202800Y-86729457D01*
X137167085Y-86658029D01*
X137167085Y-86586600D01*
X137202800Y-86515171D01*
X137238514Y-86479457D01*
X137309943Y-86443743D01*
X137452800Y-86408029D01*
X137524228Y-86372314D01*
X137559943Y-86336600D01*
X137595657Y-86265171D01*
X137595657Y-86193743D01*
X137559943Y-86122314D01*
X137524228Y-86086600D01*
X137452800Y-86050886D01*
X137274228Y-86050886D01*
X137167085Y-86086600D01*
X136417085Y-86729457D02*
X136452799Y-86765171D01*
X136559942Y-86800886D01*
X136631371Y-86800886D01*
X136738514Y-86765171D01*
X136809942Y-86693743D01*
X136845657Y-86622314D01*
X136881371Y-86479457D01*
X136881371Y-86372314D01*
X136845657Y-86229457D01*
X136809942Y-86158029D01*
X136738514Y-86086600D01*
X136631371Y-86050886D01*
X136559942Y-86050886D01*
X136452799Y-86086600D01*
X136417085Y-86122314D01*
X135738514Y-86800886D02*
X136095657Y-86800886D01*
X136095657Y-86050886D01*
X135030257Y-86050886D02*
X134565971Y-86050886D01*
X134815971Y-86336600D01*
X134708829Y-86336600D01*
X134637400Y-86372314D01*
X134601686Y-86408029D01*
X134565971Y-86479457D01*
X134565971Y-86658029D01*
X134601686Y-86729457D01*
X134637400Y-86765171D01*
X134708829Y-86800886D01*
X134923114Y-86800886D01*
X134994543Y-86765171D01*
X135030257Y-86729457D01*
X134315971Y-86300886D02*
X134137400Y-86800886D01*
X133958828Y-86300886D01*
X133744542Y-86050886D02*
X133280256Y-86050886D01*
X133530256Y-86336600D01*
X133423114Y-86336600D01*
X133351685Y-86372314D01*
X133315971Y-86408029D01*
X133280256Y-86479457D01*
X133280256Y-86658029D01*
X133315971Y-86729457D01*
X133351685Y-86765171D01*
X133423114Y-86800886D01*
X133637399Y-86800886D01*
X133708828Y-86765171D01*
X133744542Y-86729457D01*
X131965628Y-86061200D02*
X132037057Y-86025486D01*
X132144200Y-86025486D01*
X132251343Y-86061200D01*
X132322771Y-86132629D01*
X132358486Y-86204057D01*
X132394200Y-86346914D01*
X132394200Y-86454057D01*
X132358486Y-86596914D01*
X132322771Y-86668343D01*
X132251343Y-86739771D01*
X132144200Y-86775486D01*
X132072771Y-86775486D01*
X131965628Y-86739771D01*
X131929914Y-86704057D01*
X131929914Y-86454057D01*
X132072771Y-86454057D01*
X131608486Y-86775486D02*
X131608486Y-86025486D01*
X131179914Y-86775486D01*
X131179914Y-86025486D01*
X130822772Y-86775486D02*
X130822772Y-86025486D01*
X130644200Y-86025486D01*
X130537057Y-86061200D01*
X130465629Y-86132629D01*
X130429914Y-86204057D01*
X130394200Y-86346914D01*
X130394200Y-86454057D01*
X130429914Y-86596914D01*
X130465629Y-86668343D01*
X130537057Y-86739771D01*
X130644200Y-86775486D01*
X130822772Y-86775486D01*
X126872952Y-107310181D02*
X127206286Y-106833990D01*
X127444381Y-107310181D02*
X127444381Y-106310181D01*
X127063428Y-106310181D01*
X126968190Y-106357800D01*
X126920571Y-106405419D01*
X126872952Y-106500657D01*
X126872952Y-106643514D01*
X126920571Y-106738752D01*
X126968190Y-106786371D01*
X127063428Y-106833990D01*
X127444381Y-106833990D01*
X126492000Y-107262562D02*
X126396762Y-107310181D01*
X126206286Y-107310181D01*
X126111047Y-107262562D01*
X126063428Y-107167324D01*
X126063428Y-107119705D01*
X126111047Y-107024467D01*
X126206286Y-106976848D01*
X126349143Y-106976848D01*
X126444381Y-106929229D01*
X126492000Y-106833990D01*
X126492000Y-106786371D01*
X126444381Y-106691133D01*
X126349143Y-106643514D01*
X126206286Y-106643514D01*
X126111047Y-106691133D01*
X125777714Y-106643514D02*
X125396762Y-106643514D01*
X125634857Y-106310181D02*
X125634857Y-107167324D01*
X125587238Y-107262562D01*
X125492000Y-107310181D01*
X125396762Y-107310181D01*
X128038076Y-103592381D02*
X127419028Y-103592381D01*
X127752362Y-103973333D01*
X127609504Y-103973333D01*
X127514266Y-104020952D01*
X127466647Y-104068571D01*
X127419028Y-104163810D01*
X127419028Y-104401905D01*
X127466647Y-104497143D01*
X127514266Y-104544762D01*
X127609504Y-104592381D01*
X127895219Y-104592381D01*
X127990457Y-104544762D01*
X128038076Y-104497143D01*
X127085695Y-103925714D02*
X126847600Y-104592381D01*
X126609504Y-103925714D01*
X126323790Y-103592381D02*
X125704742Y-103592381D01*
X126038076Y-103973333D01*
X125895218Y-103973333D01*
X125799980Y-104020952D01*
X125752361Y-104068571D01*
X125704742Y-104163810D01*
X125704742Y-104401905D01*
X125752361Y-104497143D01*
X125799980Y-104544762D01*
X125895218Y-104592381D01*
X126180933Y-104592381D01*
X126276171Y-104544762D01*
X126323790Y-104497143D01*
X127204695Y-102077781D02*
X127204695Y-101077781D01*
X126966600Y-101077781D01*
X126823742Y-101125400D01*
X126728504Y-101220638D01*
X126680885Y-101315876D01*
X126633266Y-101506352D01*
X126633266Y-101649210D01*
X126680885Y-101839686D01*
X126728504Y-101934924D01*
X126823742Y-102030162D01*
X126966600Y-102077781D01*
X127204695Y-102077781D01*
X125728504Y-101077781D02*
X126204695Y-101077781D01*
X126252314Y-101553971D01*
X126204695Y-101506352D01*
X126109457Y-101458733D01*
X125871361Y-101458733D01*
X125776123Y-101506352D01*
X125728504Y-101553971D01*
X125680885Y-101649210D01*
X125680885Y-101887305D01*
X125728504Y-101982543D01*
X125776123Y-102030162D01*
X125871361Y-102077781D01*
X126109457Y-102077781D01*
X126204695Y-102030162D01*
X126252314Y-101982543D01*
X127204695Y-99613981D02*
X127204695Y-98613981D01*
X126966600Y-98613981D01*
X126823742Y-98661600D01*
X126728504Y-98756838D01*
X126680885Y-98852076D01*
X126633266Y-99042552D01*
X126633266Y-99185410D01*
X126680885Y-99375886D01*
X126728504Y-99471124D01*
X126823742Y-99566362D01*
X126966600Y-99613981D01*
X127204695Y-99613981D01*
X125776123Y-98947314D02*
X125776123Y-99613981D01*
X126014219Y-98566362D02*
X126252314Y-99280648D01*
X125633266Y-99280648D01*
X127230095Y-96946981D02*
X127230095Y-95946981D01*
X126992000Y-95946981D01*
X126849142Y-95994600D01*
X126753904Y-96089838D01*
X126706285Y-96185076D01*
X126658666Y-96375552D01*
X126658666Y-96518410D01*
X126706285Y-96708886D01*
X126753904Y-96804124D01*
X126849142Y-96899362D01*
X126992000Y-96946981D01*
X127230095Y-96946981D01*
X126325333Y-95946981D02*
X125706285Y-95946981D01*
X126039619Y-96327933D01*
X125896761Y-96327933D01*
X125801523Y-96375552D01*
X125753904Y-96423171D01*
X125706285Y-96518410D01*
X125706285Y-96756505D01*
X125753904Y-96851743D01*
X125801523Y-96899362D01*
X125896761Y-96946981D01*
X126182476Y-96946981D01*
X126277714Y-96899362D01*
X126325333Y-96851743D01*
X127230095Y-94381581D02*
X127230095Y-93381581D01*
X126992000Y-93381581D01*
X126849142Y-93429200D01*
X126753904Y-93524438D01*
X126706285Y-93619676D01*
X126658666Y-93810152D01*
X126658666Y-93953010D01*
X126706285Y-94143486D01*
X126753904Y-94238724D01*
X126849142Y-94333962D01*
X126992000Y-94381581D01*
X127230095Y-94381581D01*
X126277714Y-93476819D02*
X126230095Y-93429200D01*
X126134857Y-93381581D01*
X125896761Y-93381581D01*
X125801523Y-93429200D01*
X125753904Y-93476819D01*
X125706285Y-93572057D01*
X125706285Y-93667295D01*
X125753904Y-93810152D01*
X126325333Y-94381581D01*
X125706285Y-94381581D01*
X127255495Y-91841581D02*
X127255495Y-90841581D01*
X127017400Y-90841581D01*
X126874542Y-90889200D01*
X126779304Y-90984438D01*
X126731685Y-91079676D01*
X126684066Y-91270152D01*
X126684066Y-91413010D01*
X126731685Y-91603486D01*
X126779304Y-91698724D01*
X126874542Y-91793962D01*
X127017400Y-91841581D01*
X127255495Y-91841581D01*
X125731685Y-91841581D02*
X126303114Y-91841581D01*
X126017400Y-91841581D02*
X126017400Y-90841581D01*
X126112638Y-90984438D01*
X126207876Y-91079676D01*
X126303114Y-91127295D01*
X127306295Y-89530181D02*
X127306295Y-88530181D01*
X127068200Y-88530181D01*
X126925342Y-88577800D01*
X126830104Y-88673038D01*
X126782485Y-88768276D01*
X126734866Y-88958752D01*
X126734866Y-89101610D01*
X126782485Y-89292086D01*
X126830104Y-89387324D01*
X126925342Y-89482562D01*
X127068200Y-89530181D01*
X127306295Y-89530181D01*
X126115819Y-88530181D02*
X126020580Y-88530181D01*
X125925342Y-88577800D01*
X125877723Y-88625419D01*
X125830104Y-88720657D01*
X125782485Y-88911133D01*
X125782485Y-89149229D01*
X125830104Y-89339705D01*
X125877723Y-89434943D01*
X125925342Y-89482562D01*
X126020580Y-89530181D01*
X126115819Y-89530181D01*
X126211057Y-89482562D01*
X126258676Y-89434943D01*
X126306295Y-89339705D01*
X126353914Y-89149229D01*
X126353914Y-88911133D01*
X126306295Y-88720657D01*
X126258676Y-88625419D01*
X126211057Y-88577800D01*
X126115819Y-88530181D01*
D12*
X147564362Y-110485181D02*
X148040553Y-110485181D01*
X148040553Y-109485181D01*
X147088172Y-110485181D02*
X147183410Y-110437562D01*
X147231029Y-110389943D01*
X147278648Y-110294705D01*
X147278648Y-110008990D01*
X147231029Y-109913752D01*
X147183410Y-109866133D01*
X147088172Y-109818514D01*
X146945314Y-109818514D01*
X146850076Y-109866133D01*
X146802457Y-109913752D01*
X146754838Y-110008990D01*
X146754838Y-110294705D01*
X146802457Y-110389943D01*
X146850076Y-110437562D01*
X146945314Y-110485181D01*
X147088172Y-110485181D01*
X146326267Y-110485181D02*
X146326267Y-109818514D01*
X146326267Y-110008990D02*
X146278648Y-109913752D01*
X146231029Y-109866133D01*
X146135791Y-109818514D01*
X146040552Y-109818514D01*
X145278647Y-110485181D02*
X145278647Y-109961371D01*
X145326266Y-109866133D01*
X145421504Y-109818514D01*
X145611981Y-109818514D01*
X145707219Y-109866133D01*
X145278647Y-110437562D02*
X145373885Y-110485181D01*
X145611981Y-110485181D01*
X145707219Y-110437562D01*
X145754838Y-110342324D01*
X145754838Y-110247086D01*
X145707219Y-110151848D01*
X145611981Y-110104229D01*
X145373885Y-110104229D01*
X145278647Y-110056610D01*
X148607896Y-82691314D02*
X148417420Y-83357981D01*
X148226943Y-82881790D01*
X148036467Y-83357981D01*
X147845991Y-82691314D01*
X147560277Y-82691314D02*
X147369801Y-83357981D01*
X147179324Y-82881790D01*
X146988848Y-83357981D01*
X146798372Y-82691314D01*
X146512658Y-82691314D02*
X146322182Y-83357981D01*
X146131705Y-82881790D01*
X145941229Y-83357981D01*
X145750753Y-82691314D01*
X145369801Y-83262743D02*
X145322182Y-83310362D01*
X145369801Y-83357981D01*
X145417420Y-83310362D01*
X145369801Y-83262743D01*
X145369801Y-83357981D01*
X144512658Y-83310362D02*
X144607896Y-83357981D01*
X144798373Y-83357981D01*
X144893611Y-83310362D01*
X144941230Y-83215124D01*
X144941230Y-82834171D01*
X144893611Y-82738933D01*
X144798373Y-82691314D01*
X144607896Y-82691314D01*
X144512658Y-82738933D01*
X144465039Y-82834171D01*
X144465039Y-82929410D01*
X144941230Y-83024648D01*
X143893611Y-83357981D02*
X143988849Y-83310362D01*
X144036468Y-83215124D01*
X144036468Y-82357981D01*
X143131705Y-83310362D02*
X143226943Y-83357981D01*
X143417420Y-83357981D01*
X143512658Y-83310362D01*
X143560277Y-83215124D01*
X143560277Y-82834171D01*
X143512658Y-82738933D01*
X143417420Y-82691314D01*
X143226943Y-82691314D01*
X143131705Y-82738933D01*
X143084086Y-82834171D01*
X143084086Y-82929410D01*
X143560277Y-83024648D01*
X142226943Y-83310362D02*
X142322181Y-83357981D01*
X142512658Y-83357981D01*
X142607896Y-83310362D01*
X142655515Y-83262743D01*
X142703134Y-83167505D01*
X142703134Y-82881790D01*
X142655515Y-82786552D01*
X142607896Y-82738933D01*
X142512658Y-82691314D01*
X142322181Y-82691314D01*
X142226943Y-82738933D01*
X141941229Y-82691314D02*
X141560277Y-82691314D01*
X141798372Y-82357981D02*
X141798372Y-83215124D01*
X141750753Y-83310362D01*
X141655515Y-83357981D01*
X141560277Y-83357981D01*
X141226943Y-83357981D02*
X141226943Y-82691314D01*
X141226943Y-82881790D02*
X141179324Y-82786552D01*
X141131705Y-82738933D01*
X141036467Y-82691314D01*
X140941228Y-82691314D01*
X140465038Y-83357981D02*
X140560276Y-83310362D01*
X140607895Y-83262743D01*
X140655514Y-83167505D01*
X140655514Y-82881790D01*
X140607895Y-82786552D01*
X140560276Y-82738933D01*
X140465038Y-82691314D01*
X140322180Y-82691314D01*
X140226942Y-82738933D01*
X140179323Y-82786552D01*
X140131704Y-82881790D01*
X140131704Y-83167505D01*
X140179323Y-83262743D01*
X140226942Y-83310362D01*
X140322180Y-83357981D01*
X140465038Y-83357981D01*
X139703133Y-82691314D02*
X139703133Y-83357981D01*
X139703133Y-82786552D02*
X139655514Y-82738933D01*
X139560276Y-82691314D01*
X139417418Y-82691314D01*
X139322180Y-82738933D01*
X139274561Y-82834171D01*
X139274561Y-83357981D01*
X138798371Y-83357981D02*
X138798371Y-82691314D01*
X138798371Y-82357981D02*
X138845990Y-82405600D01*
X138798371Y-82453219D01*
X138750752Y-82405600D01*
X138798371Y-82357981D01*
X138798371Y-82453219D01*
X137893609Y-83310362D02*
X137988847Y-83357981D01*
X138179324Y-83357981D01*
X138274562Y-83310362D01*
X138322181Y-83262743D01*
X138369800Y-83167505D01*
X138369800Y-82881790D01*
X138322181Y-82786552D01*
X138274562Y-82738933D01*
X138179324Y-82691314D01*
X137988847Y-82691314D01*
X137893609Y-82738933D01*
X137607895Y-82691314D02*
X137226943Y-82691314D01*
X137465038Y-82357981D02*
X137465038Y-83215124D01*
X137417419Y-83310362D01*
X137322181Y-83357981D01*
X137226943Y-83357981D01*
X136893609Y-83357981D02*
X136893609Y-82691314D01*
X136893609Y-82881790D02*
X136845990Y-82786552D01*
X136798371Y-82738933D01*
X136703133Y-82691314D01*
X136607894Y-82691314D01*
X136274561Y-83357981D02*
X136274561Y-82691314D01*
X136274561Y-82357981D02*
X136322180Y-82405600D01*
X136274561Y-82453219D01*
X136226942Y-82405600D01*
X136274561Y-82357981D01*
X136274561Y-82453219D01*
X135369799Y-83310362D02*
X135465037Y-83357981D01*
X135655514Y-83357981D01*
X135750752Y-83310362D01*
X135798371Y-83262743D01*
X135845990Y-83167505D01*
X135845990Y-82881790D01*
X135798371Y-82786552D01*
X135750752Y-82738933D01*
X135655514Y-82691314D01*
X135465037Y-82691314D01*
X135369799Y-82738933D01*
X134941228Y-83357981D02*
X134941228Y-82357981D01*
X134845990Y-82977029D02*
X134560275Y-83357981D01*
X134560275Y-82691314D02*
X134941228Y-83072267D01*
X134179323Y-83310362D02*
X134084085Y-83357981D01*
X133893609Y-83357981D01*
X133798370Y-83310362D01*
X133750751Y-83215124D01*
X133750751Y-83167505D01*
X133798370Y-83072267D01*
X133893609Y-83024648D01*
X134036466Y-83024648D01*
X134131704Y-82977029D01*
X134179323Y-82881790D01*
X134179323Y-82834171D01*
X134131704Y-82738933D01*
X134036466Y-82691314D01*
X133893609Y-82691314D01*
X133798370Y-82738933D01*
X133322180Y-83262743D02*
X133274561Y-83310362D01*
X133322180Y-83357981D01*
X133369799Y-83310362D01*
X133322180Y-83262743D01*
X133322180Y-83357981D01*
X132417418Y-83310362D02*
X132512656Y-83357981D01*
X132703133Y-83357981D01*
X132798371Y-83310362D01*
X132845990Y-83262743D01*
X132893609Y-83167505D01*
X132893609Y-82881790D01*
X132845990Y-82786552D01*
X132798371Y-82738933D01*
X132703133Y-82691314D01*
X132512656Y-82691314D01*
X132417418Y-82738933D01*
X131845990Y-83357981D02*
X131941228Y-83310362D01*
X131988847Y-83262743D01*
X132036466Y-83167505D01*
X132036466Y-82881790D01*
X131988847Y-82786552D01*
X131941228Y-82738933D01*
X131845990Y-82691314D01*
X131703132Y-82691314D01*
X131607894Y-82738933D01*
X131560275Y-82786552D01*
X131512656Y-82881790D01*
X131512656Y-83167505D01*
X131560275Y-83262743D01*
X131607894Y-83310362D01*
X131703132Y-83357981D01*
X131845990Y-83357981D01*
X131084085Y-83357981D02*
X131084085Y-82691314D01*
X131084085Y-82786552D02*
X131036466Y-82738933D01*
X130941228Y-82691314D01*
X130798370Y-82691314D01*
X130703132Y-82738933D01*
X130655513Y-82834171D01*
X130655513Y-83357981D01*
X130655513Y-82834171D02*
X130607894Y-82738933D01*
X130512656Y-82691314D01*
X130369799Y-82691314D01*
X130274561Y-82738933D01*
X130226942Y-82834171D01*
X130226942Y-83357981D01*
D13*
X141213200Y-85889200D02*
X141213200Y-84189200D01*
X141263200Y-84189200D02*
X145313200Y-84189200D01*
X141263200Y-85889200D02*
X145313200Y-85889200D01*
D11*
X145111695Y-86964781D02*
X145111695Y-85964781D01*
X144873600Y-85964781D01*
X144730742Y-86012400D01*
X144635504Y-86107638D01*
X144587885Y-86202876D01*
X144540266Y-86393352D01*
X144540266Y-86536210D01*
X144587885Y-86726686D01*
X144635504Y-86821924D01*
X144730742Y-86917162D01*
X144873600Y-86964781D01*
X145111695Y-86964781D01*
X143587885Y-86964781D02*
X144159314Y-86964781D01*
X143873600Y-86964781D02*
X143873600Y-85964781D01*
X143968838Y-86107638D01*
X144064076Y-86202876D01*
X144159314Y-86250495D01*
D14*
X133711905Y-96425000D02*
X133330952Y-96158333D01*
X133711905Y-95967857D02*
X132911905Y-95967857D01*
X132911905Y-96272619D01*
X132950000Y-96348810D01*
X132988095Y-96386905D01*
X133064286Y-96425000D01*
X133178571Y-96425000D01*
X133254762Y-96386905D01*
X133292857Y-96348810D01*
X133330952Y-96272619D01*
X133330952Y-95967857D01*
X133292857Y-97034524D02*
X133292857Y-96767857D01*
X133711905Y-96767857D02*
X132911905Y-96767857D01*
X132911905Y-97148810D01*
X133711905Y-97453571D02*
X132911905Y-97453571D01*
X133483333Y-97720238D01*
X132911905Y-97986905D01*
X133711905Y-97986905D01*
X133711905Y-98405952D02*
X133711905Y-98558333D01*
X133673810Y-98634524D01*
X133635714Y-98672619D01*
X133521429Y-98748810D01*
X133369048Y-98786905D01*
X133064286Y-98786905D01*
X132988095Y-98748810D01*
X132950000Y-98710714D01*
X132911905Y-98634524D01*
X132911905Y-98482143D01*
X132950000Y-98405952D01*
X132988095Y-98367857D01*
X133064286Y-98329762D01*
X133254762Y-98329762D01*
X133330952Y-98367857D01*
X133369048Y-98405952D01*
X133407143Y-98482143D01*
X133407143Y-98634524D01*
X133369048Y-98710714D01*
X133330952Y-98748810D01*
X133254762Y-98786905D01*
X132911905Y-99510715D02*
X132911905Y-99129762D01*
X133292857Y-99091667D01*
X133254762Y-99129762D01*
X133216667Y-99205953D01*
X133216667Y-99396429D01*
X133254762Y-99472619D01*
X133292857Y-99510715D01*
X133369048Y-99548810D01*
X133559524Y-99548810D01*
X133635714Y-99510715D01*
X133673810Y-99472619D01*
X133711905Y-99396429D01*
X133711905Y-99205953D01*
X133673810Y-99129762D01*
X133635714Y-99091667D01*
X133788095Y-99701191D02*
X133788095Y-100310715D01*
X133711905Y-100920239D02*
X133711905Y-100463096D01*
X133711905Y-100691667D02*
X132911905Y-100691667D01*
X133026190Y-100615477D01*
X133102381Y-100539286D01*
X133140476Y-100463096D01*
M02*
