G04 #@! TF.FileFunction,Copper,L2,Bot,Signal*
%FSLAX46Y46*%
G04 Gerber Fmt 4.6, Leading zero omitted, Abs format (unit mm)*
G04 Created by KiCad (PCBNEW 4.0.4-stable) date 03/17/17 15:09:56*
%MOMM*%
%LPD*%
G01*
G04 APERTURE LIST*
%ADD10C,0.100000*%
%ADD11R,1.270000X4.191000*%
%ADD12R,1.700000X1.700000*%
%ADD13O,1.700000X1.700000*%
%ADD14R,1.500000X1.500000*%
%ADD15C,1.524000*%
%ADD16R,1.200000X3.000000*%
%ADD17R,1.727200X2.000000*%
%ADD18C,1.727200*%
%ADD19C,0.600000*%
%ADD20C,0.250000*%
%ADD21C,0.254000*%
G04 APERTURE END LIST*
D10*
D11*
X124472700Y-84315300D03*
X128765300Y-84315300D03*
D12*
X147320000Y-88900000D03*
D13*
X147320000Y-91440000D03*
X147320000Y-93980000D03*
X147320000Y-96520000D03*
X147320000Y-99060000D03*
X147320000Y-101600000D03*
X147320000Y-104140000D03*
X147320000Y-106680000D03*
D12*
X124460000Y-88900000D03*
D13*
X124460000Y-91440000D03*
X124460000Y-93980000D03*
X124460000Y-96520000D03*
X124460000Y-99060000D03*
X124460000Y-101600000D03*
X124460000Y-104140000D03*
X124460000Y-106680000D03*
D14*
X145363200Y-85039200D03*
X142063200Y-85039200D03*
D15*
X131572000Y-84988400D03*
X134112000Y-84988400D03*
X136652000Y-84988400D03*
X139192000Y-84988400D03*
D16*
X143002000Y-108334000D03*
X141002000Y-108334000D03*
X139002000Y-108334000D03*
X137002000Y-108334000D03*
X135002000Y-108334000D03*
X133002000Y-108334000D03*
X131002000Y-108334000D03*
X129002000Y-108334000D03*
X129002000Y-88634000D03*
X131002000Y-88634000D03*
X133002000Y-88634000D03*
X135002000Y-88634000D03*
X137002000Y-88634000D03*
X139002000Y-88634000D03*
X141002000Y-88634000D03*
X143002000Y-88634000D03*
D17*
X143002000Y-107034000D03*
D18*
X141002000Y-107034000D03*
X139002000Y-107034000D03*
X137002000Y-107034000D03*
X135002000Y-107034000D03*
X133002000Y-107034000D03*
X131002000Y-107034000D03*
X129002000Y-107034000D03*
X129002000Y-89934000D03*
X131002000Y-89934000D03*
X133002000Y-89934000D03*
X135002000Y-89934000D03*
X137002000Y-89934000D03*
X139002000Y-89934000D03*
X141002000Y-89934000D03*
X143002000Y-89934000D03*
D19*
X137972800Y-96875600D03*
X137464800Y-92811600D03*
X143713200Y-85013800D03*
X127431800Y-102336600D03*
X128574800Y-97942400D03*
X132816600Y-97942400D03*
X144322800Y-94767400D03*
X128621800Y-97017800D03*
X144526000Y-90728800D03*
X128549400Y-99923600D03*
X135991600Y-91592400D03*
X134340600Y-91617800D03*
X126339600Y-93192600D03*
X130251200Y-93700600D03*
X130225800Y-91516200D03*
X132994400Y-96393000D03*
X133324600Y-94716600D03*
X143002000Y-93218000D03*
D20*
X137363200Y-96266000D02*
X137363200Y-92913200D01*
X137972800Y-96875600D02*
X137363200Y-96266000D01*
X137363200Y-92913200D02*
X137464800Y-92811600D01*
X143687800Y-85039200D02*
X142063200Y-85039200D01*
X143713200Y-85013800D02*
X143687800Y-85039200D01*
X128765300Y-84315300D02*
X130136900Y-84315300D01*
X140336000Y-83312000D02*
X142063200Y-85039200D01*
X131140200Y-83312000D02*
X140336000Y-83312000D01*
X130136900Y-84315300D02*
X131140200Y-83312000D01*
X129002000Y-108334000D02*
X129002000Y-103652800D01*
X127685800Y-102336600D02*
X127431800Y-102336600D01*
X129002000Y-103652800D02*
X127685800Y-102336600D01*
X132816600Y-97942400D02*
X128574800Y-97942400D01*
X124472700Y-84315300D02*
X128765300Y-84315300D01*
X128765300Y-84315300D02*
X130898900Y-84315300D01*
X130898900Y-84315300D02*
X131572000Y-84988400D01*
X147320000Y-88900000D02*
X147320000Y-88925400D01*
X147320000Y-88925400D02*
X145948400Y-90297000D01*
X145948400Y-90297000D02*
X145948400Y-93192600D01*
X145948400Y-93192600D02*
X144373600Y-94767400D01*
X144373600Y-94767400D02*
X144322800Y-94767400D01*
X146786600Y-93980000D02*
X143078200Y-97688400D01*
X141579600Y-97688400D02*
X143078200Y-97688400D01*
X140944600Y-98323400D02*
X141579600Y-97688400D01*
X135051800Y-98323400D02*
X140944600Y-98323400D01*
X133858000Y-97129600D02*
X135051800Y-98323400D01*
X128733600Y-97129600D02*
X133858000Y-97129600D01*
X128733600Y-97129600D02*
X128621800Y-97017800D01*
X146786600Y-93980000D02*
X147320000Y-93980000D01*
X139192000Y-84988400D02*
X139192000Y-85648800D01*
X139192000Y-85648800D02*
X140131800Y-86588600D01*
X140131800Y-86588600D02*
X144018000Y-86588600D01*
X144018000Y-86588600D02*
X144526000Y-87096600D01*
X144526000Y-87096600D02*
X144526000Y-90728800D01*
X147320000Y-96520000D02*
X147167600Y-96520000D01*
X147167600Y-96520000D02*
X140309600Y-103378000D01*
X140309600Y-103378000D02*
X131775200Y-103378000D01*
X131775200Y-103378000D02*
X129082800Y-100685600D01*
X129082800Y-100685600D02*
X129082800Y-100457000D01*
X129082800Y-100457000D02*
X128549400Y-99923600D01*
X147320000Y-99060000D02*
X146177000Y-99060000D01*
X135002000Y-105282000D02*
X135002000Y-108334000D01*
X135890000Y-104394000D02*
X135002000Y-105282000D01*
X140843000Y-104394000D02*
X135890000Y-104394000D01*
X146177000Y-99060000D02*
X140843000Y-104394000D01*
X147320000Y-101600000D02*
X145034000Y-101600000D01*
X139002000Y-105473000D02*
X139002000Y-108334000D01*
X139115800Y-105359200D02*
X139002000Y-105473000D01*
X141274800Y-105359200D02*
X139115800Y-105359200D01*
X145034000Y-101600000D02*
X141274800Y-105359200D01*
X147320000Y-104140000D02*
X143383000Y-104140000D01*
X143383000Y-104140000D02*
X141002000Y-106521000D01*
X141002000Y-106521000D02*
X141002000Y-107034000D01*
X141002000Y-107034000D02*
X141002000Y-108334000D01*
X129540000Y-86766400D02*
X130098800Y-86207600D01*
X128219200Y-86766400D02*
X129540000Y-86766400D01*
X128066800Y-86918800D02*
X128219200Y-86766400D01*
X128066800Y-87096600D02*
X128066800Y-86918800D01*
X127584200Y-87579200D02*
X128066800Y-87096600D01*
X127584200Y-88112600D02*
X127584200Y-87579200D01*
X126796800Y-88900000D02*
X127584200Y-88112600D01*
X124460000Y-88900000D02*
X126796800Y-88900000D01*
X137642600Y-86207600D02*
X139002000Y-87567000D01*
X137642600Y-86207600D02*
X130098800Y-86207600D01*
X139002000Y-88634000D02*
X139002000Y-87567000D01*
X124485400Y-88925400D02*
X124460000Y-88900000D01*
X124460000Y-91440000D02*
X128778000Y-91440000D01*
X139369000Y-91567000D02*
X141002000Y-89934000D01*
X136017000Y-91567000D02*
X139369000Y-91567000D01*
X135991600Y-91592400D02*
X136017000Y-91567000D01*
X133248400Y-92710000D02*
X134340600Y-91617800D01*
X130048000Y-92710000D02*
X133248400Y-92710000D01*
X128778000Y-91440000D02*
X130048000Y-92710000D01*
X141002000Y-89934000D02*
X141002000Y-88634000D01*
X124460000Y-93980000D02*
X127482600Y-93980000D01*
X143002000Y-91694000D02*
X143002000Y-88634000D01*
X141884400Y-92811600D02*
X143002000Y-91694000D01*
X141884400Y-94234000D02*
X141884400Y-92811600D01*
X140563600Y-95554800D02*
X141884400Y-94234000D01*
X140563600Y-96545400D02*
X140563600Y-95554800D01*
X139547600Y-97561400D02*
X140563600Y-96545400D01*
X137210800Y-97561400D02*
X139547600Y-97561400D01*
X135305800Y-95656400D02*
X137210800Y-97561400D01*
X129159000Y-95656400D02*
X135305800Y-95656400D01*
X127482600Y-93980000D02*
X129159000Y-95656400D01*
X133002000Y-88634000D02*
X133002000Y-90899000D01*
X129743200Y-93192600D02*
X126339600Y-93192600D01*
X130251200Y-93700600D02*
X129743200Y-93192600D01*
X132384800Y-91516200D02*
X130225800Y-91516200D01*
X133002000Y-90899000D02*
X132384800Y-91516200D01*
X124460000Y-99060000D02*
X125069600Y-99060000D01*
X125069600Y-99060000D02*
X127965200Y-96164400D01*
X127965200Y-96164400D02*
X132765800Y-96164400D01*
X132765800Y-96164400D02*
X132994400Y-96393000D01*
X133324600Y-94716600D02*
X135002000Y-93039200D01*
X135002000Y-93039200D02*
X135002000Y-89934000D01*
X135002000Y-89934000D02*
X135002000Y-88634000D01*
X131002000Y-108334000D02*
X131002000Y-104535200D01*
X128066800Y-101600000D02*
X124460000Y-101600000D01*
X131002000Y-104535200D02*
X128066800Y-101600000D01*
X145363200Y-85039200D02*
X145363200Y-90856800D01*
X145363200Y-90856800D02*
X143002000Y-93218000D01*
D21*
G36*
X130242000Y-104850002D02*
X130242000Y-105726538D01*
X130154220Y-105762808D01*
X130021069Y-105895727D01*
X129990867Y-105865525D01*
X129876199Y-105980193D01*
X129794259Y-105727484D01*
X129233970Y-105523752D01*
X128638365Y-105549942D01*
X128209741Y-105727484D01*
X128127800Y-105980195D01*
X128346605Y-106199000D01*
X128275690Y-106199000D01*
X128071835Y-106283440D01*
X127948195Y-106159800D01*
X127695484Y-106241741D01*
X127491752Y-106802030D01*
X127517942Y-107397635D01*
X127695484Y-107826259D01*
X127767000Y-107849448D01*
X127767000Y-108048250D01*
X127925750Y-108207000D01*
X128166449Y-108207000D01*
X128209741Y-108340516D01*
X128541087Y-108461000D01*
X127925750Y-108461000D01*
X127767000Y-108619750D01*
X127767000Y-109960309D01*
X127863673Y-110193698D01*
X128042301Y-110372327D01*
X128145323Y-110415000D01*
X125774466Y-110415000D01*
X125772853Y-110234373D01*
X125883682Y-109677200D01*
X125762436Y-109067657D01*
X125755395Y-108279066D01*
X125744948Y-108229747D01*
X125716137Y-108188378D01*
X125673501Y-108161478D01*
X125628400Y-108153200D01*
X125042419Y-108153200D01*
X124929093Y-108077478D01*
X125057378Y-108051961D01*
X125539147Y-107730054D01*
X125861054Y-107248285D01*
X125974093Y-106680000D01*
X125861054Y-106111715D01*
X125539147Y-105629946D01*
X125209974Y-105410000D01*
X125539147Y-105190054D01*
X125861054Y-104708285D01*
X125974093Y-104140000D01*
X125861054Y-103571715D01*
X125539147Y-103089946D01*
X125209974Y-102870000D01*
X125539147Y-102650054D01*
X125732954Y-102360000D01*
X127751998Y-102360000D01*
X130242000Y-104850002D01*
X130242000Y-104850002D01*
G37*
X130242000Y-104850002D02*
X130242000Y-105726538D01*
X130154220Y-105762808D01*
X130021069Y-105895727D01*
X129990867Y-105865525D01*
X129876199Y-105980193D01*
X129794259Y-105727484D01*
X129233970Y-105523752D01*
X128638365Y-105549942D01*
X128209741Y-105727484D01*
X128127800Y-105980195D01*
X128346605Y-106199000D01*
X128275690Y-106199000D01*
X128071835Y-106283440D01*
X127948195Y-106159800D01*
X127695484Y-106241741D01*
X127491752Y-106802030D01*
X127517942Y-107397635D01*
X127695484Y-107826259D01*
X127767000Y-107849448D01*
X127767000Y-108048250D01*
X127925750Y-108207000D01*
X128166449Y-108207000D01*
X128209741Y-108340516D01*
X128541087Y-108461000D01*
X127925750Y-108461000D01*
X127767000Y-108619750D01*
X127767000Y-109960309D01*
X127863673Y-110193698D01*
X128042301Y-110372327D01*
X128145323Y-110415000D01*
X125774466Y-110415000D01*
X125772853Y-110234373D01*
X125883682Y-109677200D01*
X125762436Y-109067657D01*
X125755395Y-108279066D01*
X125744948Y-108229747D01*
X125716137Y-108188378D01*
X125673501Y-108161478D01*
X125628400Y-108153200D01*
X125042419Y-108153200D01*
X124929093Y-108077478D01*
X125057378Y-108051961D01*
X125539147Y-107730054D01*
X125861054Y-107248285D01*
X125974093Y-106680000D01*
X125861054Y-106111715D01*
X125539147Y-105629946D01*
X125209974Y-105410000D01*
X125539147Y-105190054D01*
X125861054Y-104708285D01*
X125974093Y-104140000D01*
X125861054Y-103571715D01*
X125539147Y-103089946D01*
X125209974Y-102870000D01*
X125539147Y-102650054D01*
X125732954Y-102360000D01*
X127751998Y-102360000D01*
X130242000Y-104850002D01*
G36*
X143129000Y-108481000D02*
X142875000Y-108481000D01*
X142875000Y-106887000D01*
X143129000Y-106887000D01*
X143129000Y-108481000D01*
X143129000Y-108481000D01*
G37*
X143129000Y-108481000D02*
X142875000Y-108481000D01*
X142875000Y-106887000D01*
X143129000Y-106887000D01*
X143129000Y-108481000D01*
G36*
X145918946Y-95951715D02*
X145805907Y-96520000D01*
X145853505Y-96759293D01*
X139994798Y-102618000D01*
X132090002Y-102618000D01*
X129821396Y-100349394D01*
X129784948Y-100166161D01*
X129620201Y-99919599D01*
X129484522Y-99783920D01*
X129484562Y-99738433D01*
X129342517Y-99394657D01*
X129079727Y-99131408D01*
X128736199Y-98988762D01*
X128364233Y-98988438D01*
X128020457Y-99130483D01*
X127757208Y-99393273D01*
X127614562Y-99736801D01*
X127614238Y-100108767D01*
X127756283Y-100452543D01*
X128019073Y-100715792D01*
X128356692Y-100855984D01*
X128366151Y-100903540D01*
X128357639Y-100897852D01*
X128066800Y-100840000D01*
X125732954Y-100840000D01*
X125539147Y-100549946D01*
X125209974Y-100330000D01*
X125539147Y-100110054D01*
X125861054Y-99628285D01*
X125931805Y-99272597D01*
X127778679Y-97425723D01*
X127828683Y-97546743D01*
X128091473Y-97809992D01*
X128435001Y-97952638D01*
X128806967Y-97952962D01*
X128960315Y-97889600D01*
X133543198Y-97889600D01*
X134514399Y-98860801D01*
X134760961Y-99025548D01*
X135051800Y-99083400D01*
X140944600Y-99083400D01*
X141235439Y-99025548D01*
X141482001Y-98860801D01*
X141894402Y-98448400D01*
X143078200Y-98448400D01*
X143369039Y-98390548D01*
X143615601Y-98225801D01*
X145977864Y-95863538D01*
X145918946Y-95951715D01*
X145918946Y-95951715D01*
G37*
X145918946Y-95951715D02*
X145805907Y-96520000D01*
X145853505Y-96759293D01*
X139994798Y-102618000D01*
X132090002Y-102618000D01*
X129821396Y-100349394D01*
X129784948Y-100166161D01*
X129620201Y-99919599D01*
X129484522Y-99783920D01*
X129484562Y-99738433D01*
X129342517Y-99394657D01*
X129079727Y-99131408D01*
X128736199Y-98988762D01*
X128364233Y-98988438D01*
X128020457Y-99130483D01*
X127757208Y-99393273D01*
X127614562Y-99736801D01*
X127614238Y-100108767D01*
X127756283Y-100452543D01*
X128019073Y-100715792D01*
X128356692Y-100855984D01*
X128366151Y-100903540D01*
X128357639Y-100897852D01*
X128066800Y-100840000D01*
X125732954Y-100840000D01*
X125539147Y-100549946D01*
X125209974Y-100330000D01*
X125539147Y-100110054D01*
X125861054Y-99628285D01*
X125931805Y-99272597D01*
X127778679Y-97425723D01*
X127828683Y-97546743D01*
X128091473Y-97809992D01*
X128435001Y-97952638D01*
X128806967Y-97952962D01*
X128960315Y-97889600D01*
X133543198Y-97889600D01*
X134514399Y-98860801D01*
X134760961Y-99025548D01*
X135051800Y-99083400D01*
X140944600Y-99083400D01*
X141235439Y-99025548D01*
X141482001Y-98860801D01*
X141894402Y-98448400D01*
X143078200Y-98448400D01*
X143369039Y-98390548D01*
X143615601Y-98225801D01*
X145977864Y-95863538D01*
X145918946Y-95951715D01*
G36*
X142152003Y-91203710D02*
X142242000Y-91241080D01*
X142242000Y-91379198D01*
X141346999Y-92274199D01*
X141182252Y-92520761D01*
X141124400Y-92811600D01*
X141124400Y-93919198D01*
X140026199Y-95017399D01*
X139861452Y-95263961D01*
X139803600Y-95554800D01*
X139803600Y-96230598D01*
X139232798Y-96801400D01*
X137525602Y-96801400D01*
X135843201Y-95118999D01*
X135596639Y-94954252D01*
X135305800Y-94896400D01*
X134259444Y-94896400D01*
X134259479Y-94856523D01*
X135539401Y-93576601D01*
X135704148Y-93330039D01*
X135762000Y-93039200D01*
X135762000Y-92509465D01*
X135804801Y-92527238D01*
X136176767Y-92527562D01*
X136520543Y-92385517D01*
X136579162Y-92327000D01*
X139369000Y-92327000D01*
X139659839Y-92269148D01*
X139906401Y-92104401D01*
X140614886Y-91395916D01*
X140702602Y-91432339D01*
X141298782Y-91432859D01*
X141849780Y-91205192D01*
X142001896Y-91053341D01*
X142152003Y-91203710D01*
X142152003Y-91203710D01*
G37*
X142152003Y-91203710D02*
X142242000Y-91241080D01*
X142242000Y-91379198D01*
X141346999Y-92274199D01*
X141182252Y-92520761D01*
X141124400Y-92811600D01*
X141124400Y-93919198D01*
X140026199Y-95017399D01*
X139861452Y-95263961D01*
X139803600Y-95554800D01*
X139803600Y-96230598D01*
X139232798Y-96801400D01*
X137525602Y-96801400D01*
X135843201Y-95118999D01*
X135596639Y-94954252D01*
X135305800Y-94896400D01*
X134259444Y-94896400D01*
X134259479Y-94856523D01*
X135539401Y-93576601D01*
X135704148Y-93330039D01*
X135762000Y-93039200D01*
X135762000Y-92509465D01*
X135804801Y-92527238D01*
X136176767Y-92527562D01*
X136520543Y-92385517D01*
X136579162Y-92327000D01*
X139369000Y-92327000D01*
X139659839Y-92269148D01*
X139906401Y-92104401D01*
X140614886Y-91395916D01*
X140702602Y-91432339D01*
X141298782Y-91432859D01*
X141849780Y-91205192D01*
X142001896Y-91053341D01*
X142152003Y-91203710D01*
G36*
X147447000Y-91313000D02*
X147467000Y-91313000D01*
X147467000Y-91567000D01*
X147447000Y-91567000D01*
X147447000Y-91587000D01*
X147193000Y-91587000D01*
X147193000Y-91567000D01*
X147173000Y-91567000D01*
X147173000Y-91313000D01*
X147193000Y-91313000D01*
X147193000Y-91293000D01*
X147447000Y-91293000D01*
X147447000Y-91313000D01*
X147447000Y-91313000D01*
G37*
X147447000Y-91313000D02*
X147467000Y-91313000D01*
X147467000Y-91567000D01*
X147447000Y-91567000D01*
X147447000Y-91587000D01*
X147193000Y-91587000D01*
X147193000Y-91567000D01*
X147173000Y-91567000D01*
X147173000Y-91313000D01*
X147193000Y-91313000D01*
X147193000Y-91293000D01*
X147447000Y-91293000D01*
X147447000Y-91313000D01*
G36*
X127495300Y-84029550D02*
X127654050Y-84188300D01*
X128638300Y-84188300D01*
X128638300Y-84168300D01*
X128892300Y-84168300D01*
X128892300Y-84188300D01*
X129876550Y-84188300D01*
X130035300Y-84029550D01*
X130035300Y-84008187D01*
X130771392Y-84008187D01*
X131572000Y-84808795D01*
X132372608Y-84008187D01*
X132303143Y-83766003D01*
X131779698Y-83579256D01*
X131224632Y-83607038D01*
X130840857Y-83766003D01*
X130771392Y-84008187D01*
X130035300Y-84008187D01*
X130035300Y-82625000D01*
X148515000Y-82625000D01*
X148515000Y-87517188D01*
X148421890Y-87453569D01*
X148170000Y-87402560D01*
X146470000Y-87402560D01*
X146234683Y-87446838D01*
X146123200Y-87518575D01*
X146123200Y-86434758D01*
X146348517Y-86392362D01*
X146564641Y-86253290D01*
X146709631Y-86041090D01*
X146760640Y-85789200D01*
X146760640Y-84289200D01*
X146716362Y-84053883D01*
X146577290Y-83837759D01*
X146365090Y-83692769D01*
X146113200Y-83641760D01*
X144613200Y-83641760D01*
X144377883Y-83686038D01*
X144161759Y-83825110D01*
X144016769Y-84037310D01*
X143965760Y-84289200D01*
X143965760Y-85789200D01*
X143973174Y-85828600D01*
X143448200Y-85828600D01*
X143448200Y-85324950D01*
X143289450Y-85166200D01*
X142190200Y-85166200D01*
X142190200Y-85186200D01*
X141936200Y-85186200D01*
X141936200Y-85166200D01*
X140836950Y-85166200D01*
X140678200Y-85324950D01*
X140678200Y-85828600D01*
X140446602Y-85828600D01*
X140382419Y-85764417D01*
X140588757Y-85267500D01*
X140589242Y-84711739D01*
X140377010Y-84198097D01*
X140341865Y-84162890D01*
X140678200Y-84162890D01*
X140678200Y-84753450D01*
X140836950Y-84912200D01*
X141936200Y-84912200D01*
X141936200Y-83812950D01*
X142190200Y-83812950D01*
X142190200Y-84912200D01*
X143289450Y-84912200D01*
X143448200Y-84753450D01*
X143448200Y-84162890D01*
X143351527Y-83929501D01*
X143172898Y-83750873D01*
X142939509Y-83654200D01*
X142348950Y-83654200D01*
X142190200Y-83812950D01*
X141936200Y-83812950D01*
X141777450Y-83654200D01*
X141186891Y-83654200D01*
X140953502Y-83750873D01*
X140774873Y-83929501D01*
X140678200Y-84162890D01*
X140341865Y-84162890D01*
X139984370Y-83804771D01*
X139471100Y-83591643D01*
X138915339Y-83591158D01*
X138401697Y-83803390D01*
X138008371Y-84196030D01*
X137922051Y-84403912D01*
X137837010Y-84198097D01*
X137444370Y-83804771D01*
X136931100Y-83591643D01*
X136375339Y-83591158D01*
X135861697Y-83803390D01*
X135468371Y-84196030D01*
X135382051Y-84403912D01*
X135297010Y-84198097D01*
X134904370Y-83804771D01*
X134391100Y-83591643D01*
X133835339Y-83591158D01*
X133321697Y-83803390D01*
X132928371Y-84196030D01*
X132848605Y-84388127D01*
X132794397Y-84257257D01*
X132552213Y-84187792D01*
X131751605Y-84988400D01*
X131765748Y-85002543D01*
X131586143Y-85182148D01*
X131572000Y-85168005D01*
X131557858Y-85182148D01*
X131378253Y-85002543D01*
X131392395Y-84988400D01*
X130591787Y-84187792D01*
X130349603Y-84257257D01*
X130162856Y-84780702D01*
X130187480Y-85272677D01*
X130035300Y-85272544D01*
X130035300Y-84601050D01*
X129876550Y-84442300D01*
X128892300Y-84442300D01*
X128892300Y-84462300D01*
X128638300Y-84462300D01*
X128638300Y-84442300D01*
X127654050Y-84442300D01*
X127495300Y-84601050D01*
X127495300Y-86537110D01*
X127591973Y-86770499D01*
X127592791Y-86771317D01*
X127272033Y-86771038D01*
X126928257Y-86913083D01*
X126665008Y-87175873D01*
X126522362Y-87519401D01*
X126522321Y-87566277D01*
X125957440Y-88131158D01*
X125957440Y-88050000D01*
X125913162Y-87814683D01*
X125774090Y-87598559D01*
X125561890Y-87453569D01*
X125310000Y-87402560D01*
X123610000Y-87402560D01*
X123374683Y-87446838D01*
X123265000Y-87517417D01*
X123265000Y-86687515D01*
X123299373Y-86770499D01*
X123478002Y-86949127D01*
X123711391Y-87045800D01*
X124186950Y-87045800D01*
X124345700Y-86887050D01*
X124345700Y-84442300D01*
X124599700Y-84442300D01*
X124599700Y-86887050D01*
X124758450Y-87045800D01*
X125234009Y-87045800D01*
X125467398Y-86949127D01*
X125646027Y-86770499D01*
X125742700Y-86537110D01*
X125742700Y-84601050D01*
X125583950Y-84442300D01*
X124599700Y-84442300D01*
X124345700Y-84442300D01*
X124325700Y-84442300D01*
X124325700Y-84188300D01*
X124345700Y-84188300D01*
X124345700Y-84168300D01*
X124599700Y-84168300D01*
X124599700Y-84188300D01*
X125583950Y-84188300D01*
X125742700Y-84029550D01*
X125742700Y-82625000D01*
X127495300Y-82625000D01*
X127495300Y-84029550D01*
X127495300Y-84029550D01*
G37*
X127495300Y-84029550D02*
X127654050Y-84188300D01*
X128638300Y-84188300D01*
X128638300Y-84168300D01*
X128892300Y-84168300D01*
X128892300Y-84188300D01*
X129876550Y-84188300D01*
X130035300Y-84029550D01*
X130035300Y-84008187D01*
X130771392Y-84008187D01*
X131572000Y-84808795D01*
X132372608Y-84008187D01*
X132303143Y-83766003D01*
X131779698Y-83579256D01*
X131224632Y-83607038D01*
X130840857Y-83766003D01*
X130771392Y-84008187D01*
X130035300Y-84008187D01*
X130035300Y-82625000D01*
X148515000Y-82625000D01*
X148515000Y-87517188D01*
X148421890Y-87453569D01*
X148170000Y-87402560D01*
X146470000Y-87402560D01*
X146234683Y-87446838D01*
X146123200Y-87518575D01*
X146123200Y-86434758D01*
X146348517Y-86392362D01*
X146564641Y-86253290D01*
X146709631Y-86041090D01*
X146760640Y-85789200D01*
X146760640Y-84289200D01*
X146716362Y-84053883D01*
X146577290Y-83837759D01*
X146365090Y-83692769D01*
X146113200Y-83641760D01*
X144613200Y-83641760D01*
X144377883Y-83686038D01*
X144161759Y-83825110D01*
X144016769Y-84037310D01*
X143965760Y-84289200D01*
X143965760Y-85789200D01*
X143973174Y-85828600D01*
X143448200Y-85828600D01*
X143448200Y-85324950D01*
X143289450Y-85166200D01*
X142190200Y-85166200D01*
X142190200Y-85186200D01*
X141936200Y-85186200D01*
X141936200Y-85166200D01*
X140836950Y-85166200D01*
X140678200Y-85324950D01*
X140678200Y-85828600D01*
X140446602Y-85828600D01*
X140382419Y-85764417D01*
X140588757Y-85267500D01*
X140589242Y-84711739D01*
X140377010Y-84198097D01*
X140341865Y-84162890D01*
X140678200Y-84162890D01*
X140678200Y-84753450D01*
X140836950Y-84912200D01*
X141936200Y-84912200D01*
X141936200Y-83812950D01*
X142190200Y-83812950D01*
X142190200Y-84912200D01*
X143289450Y-84912200D01*
X143448200Y-84753450D01*
X143448200Y-84162890D01*
X143351527Y-83929501D01*
X143172898Y-83750873D01*
X142939509Y-83654200D01*
X142348950Y-83654200D01*
X142190200Y-83812950D01*
X141936200Y-83812950D01*
X141777450Y-83654200D01*
X141186891Y-83654200D01*
X140953502Y-83750873D01*
X140774873Y-83929501D01*
X140678200Y-84162890D01*
X140341865Y-84162890D01*
X139984370Y-83804771D01*
X139471100Y-83591643D01*
X138915339Y-83591158D01*
X138401697Y-83803390D01*
X138008371Y-84196030D01*
X137922051Y-84403912D01*
X137837010Y-84198097D01*
X137444370Y-83804771D01*
X136931100Y-83591643D01*
X136375339Y-83591158D01*
X135861697Y-83803390D01*
X135468371Y-84196030D01*
X135382051Y-84403912D01*
X135297010Y-84198097D01*
X134904370Y-83804771D01*
X134391100Y-83591643D01*
X133835339Y-83591158D01*
X133321697Y-83803390D01*
X132928371Y-84196030D01*
X132848605Y-84388127D01*
X132794397Y-84257257D01*
X132552213Y-84187792D01*
X131751605Y-84988400D01*
X131765748Y-85002543D01*
X131586143Y-85182148D01*
X131572000Y-85168005D01*
X131557858Y-85182148D01*
X131378253Y-85002543D01*
X131392395Y-84988400D01*
X130591787Y-84187792D01*
X130349603Y-84257257D01*
X130162856Y-84780702D01*
X130187480Y-85272677D01*
X130035300Y-85272544D01*
X130035300Y-84601050D01*
X129876550Y-84442300D01*
X128892300Y-84442300D01*
X128892300Y-84462300D01*
X128638300Y-84462300D01*
X128638300Y-84442300D01*
X127654050Y-84442300D01*
X127495300Y-84601050D01*
X127495300Y-86537110D01*
X127591973Y-86770499D01*
X127592791Y-86771317D01*
X127272033Y-86771038D01*
X126928257Y-86913083D01*
X126665008Y-87175873D01*
X126522362Y-87519401D01*
X126522321Y-87566277D01*
X125957440Y-88131158D01*
X125957440Y-88050000D01*
X125913162Y-87814683D01*
X125774090Y-87598559D01*
X125561890Y-87453569D01*
X125310000Y-87402560D01*
X123610000Y-87402560D01*
X123374683Y-87446838D01*
X123265000Y-87517417D01*
X123265000Y-86687515D01*
X123299373Y-86770499D01*
X123478002Y-86949127D01*
X123711391Y-87045800D01*
X124186950Y-87045800D01*
X124345700Y-86887050D01*
X124345700Y-84442300D01*
X124599700Y-84442300D01*
X124599700Y-86887050D01*
X124758450Y-87045800D01*
X125234009Y-87045800D01*
X125467398Y-86949127D01*
X125646027Y-86770499D01*
X125742700Y-86537110D01*
X125742700Y-84601050D01*
X125583950Y-84442300D01*
X124599700Y-84442300D01*
X124345700Y-84442300D01*
X124325700Y-84442300D01*
X124325700Y-84188300D01*
X124345700Y-84188300D01*
X124345700Y-84168300D01*
X124599700Y-84168300D01*
X124599700Y-84188300D01*
X125583950Y-84188300D01*
X125742700Y-84029550D01*
X125742700Y-82625000D01*
X127495300Y-82625000D01*
X127495300Y-84029550D01*
M02*
