G04 #@! TF.FileFunction,Legend,Top*
%FSLAX46Y46*%
G04 Gerber Fmt 4.6, Leading zero omitted, Abs format (unit mm)*
G04 Created by KiCad (PCBNEW 4.0.4-stable) date 03/17/17 15:09:56*
%MOMM*%
%LPD*%
G01*
G04 APERTURE LIST*
%ADD10C,0.100000*%
%ADD11C,0.180000*%
%ADD12C,0.150000*%
%ADD13C,0.120000*%
G04 APERTURE END LIST*
D10*
D11*
X129074885Y-103324943D02*
X128646314Y-103324943D01*
X128646314Y-102424943D01*
X129503456Y-103324943D02*
X129417742Y-103282086D01*
X129374885Y-103239229D01*
X129332028Y-103153514D01*
X129332028Y-102896371D01*
X129374885Y-102810657D01*
X129417742Y-102767800D01*
X129503456Y-102724943D01*
X129632028Y-102724943D01*
X129717742Y-102767800D01*
X129760599Y-102810657D01*
X129803456Y-102896371D01*
X129803456Y-103153514D01*
X129760599Y-103239229D01*
X129717742Y-103282086D01*
X129632028Y-103324943D01*
X129503456Y-103324943D01*
X130703456Y-103324943D02*
X130403456Y-102896371D01*
X130189171Y-103324943D02*
X130189171Y-102424943D01*
X130532028Y-102424943D01*
X130617742Y-102467800D01*
X130660599Y-102510657D01*
X130703456Y-102596371D01*
X130703456Y-102724943D01*
X130660599Y-102810657D01*
X130617742Y-102853514D01*
X130532028Y-102896371D01*
X130189171Y-102896371D01*
X131474885Y-103324943D02*
X131474885Y-102853514D01*
X131432028Y-102767800D01*
X131346314Y-102724943D01*
X131174885Y-102724943D01*
X131089171Y-102767800D01*
X131474885Y-103282086D02*
X131389171Y-103324943D01*
X131174885Y-103324943D01*
X131089171Y-103282086D01*
X131046314Y-103196371D01*
X131046314Y-103110657D01*
X131089171Y-103024943D01*
X131174885Y-102982086D01*
X131389171Y-102982086D01*
X131474885Y-102939229D01*
X131817742Y-102424943D02*
X132032028Y-103324943D01*
X132203457Y-102682086D01*
X132374885Y-103324943D01*
X132589171Y-102424943D01*
X132889171Y-103067800D02*
X133317742Y-103067800D01*
X132803456Y-103324943D02*
X133103456Y-102424943D01*
X133403456Y-103324943D01*
X133703457Y-103324943D02*
X133703457Y-102424943D01*
X134217742Y-103324943D01*
X134217742Y-102424943D01*
X135632028Y-102853514D02*
X135760599Y-102896371D01*
X135803456Y-102939229D01*
X135846313Y-103024943D01*
X135846313Y-103153514D01*
X135803456Y-103239229D01*
X135760599Y-103282086D01*
X135674885Y-103324943D01*
X135332028Y-103324943D01*
X135332028Y-102424943D01*
X135632028Y-102424943D01*
X135717742Y-102467800D01*
X135760599Y-102510657D01*
X135803456Y-102596371D01*
X135803456Y-102682086D01*
X135760599Y-102767800D01*
X135717742Y-102810657D01*
X135632028Y-102853514D01*
X135332028Y-102853514D01*
X136232028Y-103324943D02*
X136232028Y-102724943D01*
X136232028Y-102896371D02*
X136274885Y-102810657D01*
X136317742Y-102767800D01*
X136403456Y-102724943D01*
X136489171Y-102724943D01*
X137132028Y-103282086D02*
X137046314Y-103324943D01*
X136874885Y-103324943D01*
X136789171Y-103282086D01*
X136746314Y-103196371D01*
X136746314Y-102853514D01*
X136789171Y-102767800D01*
X136874885Y-102724943D01*
X137046314Y-102724943D01*
X137132028Y-102767800D01*
X137174885Y-102853514D01*
X137174885Y-102939229D01*
X136746314Y-103024943D01*
X137946314Y-103324943D02*
X137946314Y-102853514D01*
X137903457Y-102767800D01*
X137817743Y-102724943D01*
X137646314Y-102724943D01*
X137560600Y-102767800D01*
X137946314Y-103282086D02*
X137860600Y-103324943D01*
X137646314Y-103324943D01*
X137560600Y-103282086D01*
X137517743Y-103196371D01*
X137517743Y-103110657D01*
X137560600Y-103024943D01*
X137646314Y-102982086D01*
X137860600Y-102982086D01*
X137946314Y-102939229D01*
X138760600Y-103324943D02*
X138760600Y-102424943D01*
X138760600Y-103282086D02*
X138674886Y-103324943D01*
X138503457Y-103324943D01*
X138417743Y-103282086D01*
X138374886Y-103239229D01*
X138332029Y-103153514D01*
X138332029Y-102896371D01*
X138374886Y-102810657D01*
X138417743Y-102767800D01*
X138503457Y-102724943D01*
X138674886Y-102724943D01*
X138760600Y-102767800D01*
X139189172Y-103324943D02*
X139189172Y-102424943D01*
X139189172Y-102767800D02*
X139274886Y-102724943D01*
X139446315Y-102724943D01*
X139532029Y-102767800D01*
X139574886Y-102810657D01*
X139617743Y-102896371D01*
X139617743Y-103153514D01*
X139574886Y-103239229D01*
X139532029Y-103282086D01*
X139446315Y-103324943D01*
X139274886Y-103324943D01*
X139189172Y-103282086D01*
X140132029Y-103324943D02*
X140046315Y-103282086D01*
X140003458Y-103239229D01*
X139960601Y-103153514D01*
X139960601Y-102896371D01*
X140003458Y-102810657D01*
X140046315Y-102767800D01*
X140132029Y-102724943D01*
X140260601Y-102724943D01*
X140346315Y-102767800D01*
X140389172Y-102810657D01*
X140432029Y-102896371D01*
X140432029Y-103153514D01*
X140389172Y-103239229D01*
X140346315Y-103282086D01*
X140260601Y-103324943D01*
X140132029Y-103324943D01*
X141203458Y-103324943D02*
X141203458Y-102853514D01*
X141160601Y-102767800D01*
X141074887Y-102724943D01*
X140903458Y-102724943D01*
X140817744Y-102767800D01*
X141203458Y-103282086D02*
X141117744Y-103324943D01*
X140903458Y-103324943D01*
X140817744Y-103282086D01*
X140774887Y-103196371D01*
X140774887Y-103110657D01*
X140817744Y-103024943D01*
X140903458Y-102982086D01*
X141117744Y-102982086D01*
X141203458Y-102939229D01*
X141632030Y-103324943D02*
X141632030Y-102724943D01*
X141632030Y-102896371D02*
X141674887Y-102810657D01*
X141717744Y-102767800D01*
X141803458Y-102724943D01*
X141889173Y-102724943D01*
X142574887Y-103324943D02*
X142574887Y-102424943D01*
X142574887Y-103282086D02*
X142489173Y-103324943D01*
X142317744Y-103324943D01*
X142232030Y-103282086D01*
X142189173Y-103239229D01*
X142146316Y-103153514D01*
X142146316Y-102896371D01*
X142189173Y-102810657D01*
X142232030Y-102767800D01*
X142317744Y-102724943D01*
X142489173Y-102724943D01*
X142574887Y-102767800D01*
X130146314Y-104597800D02*
X130574885Y-104597800D01*
X130060599Y-104854943D02*
X130360599Y-103954943D01*
X130660599Y-104854943D01*
X131346314Y-104854943D02*
X131346314Y-103954943D01*
X131346314Y-104812086D02*
X131260600Y-104854943D01*
X131089171Y-104854943D01*
X131003457Y-104812086D01*
X130960600Y-104769229D01*
X130917743Y-104683514D01*
X130917743Y-104426371D01*
X130960600Y-104340657D01*
X131003457Y-104297800D01*
X131089171Y-104254943D01*
X131260600Y-104254943D01*
X131346314Y-104297800D01*
X132160600Y-104854943D02*
X132160600Y-104383514D01*
X132117743Y-104297800D01*
X132032029Y-104254943D01*
X131860600Y-104254943D01*
X131774886Y-104297800D01*
X132160600Y-104812086D02*
X132074886Y-104854943D01*
X131860600Y-104854943D01*
X131774886Y-104812086D01*
X131732029Y-104726371D01*
X131732029Y-104640657D01*
X131774886Y-104554943D01*
X131860600Y-104512086D01*
X132074886Y-104512086D01*
X132160600Y-104469229D01*
X132589172Y-104254943D02*
X132589172Y-105154943D01*
X132589172Y-104297800D02*
X132674886Y-104254943D01*
X132846315Y-104254943D01*
X132932029Y-104297800D01*
X132974886Y-104340657D01*
X133017743Y-104426371D01*
X133017743Y-104683514D01*
X132974886Y-104769229D01*
X132932029Y-104812086D01*
X132846315Y-104854943D01*
X132674886Y-104854943D01*
X132589172Y-104812086D01*
X133274886Y-104254943D02*
X133617743Y-104254943D01*
X133403458Y-103954943D02*
X133403458Y-104726371D01*
X133446315Y-104812086D01*
X133532029Y-104854943D01*
X133617743Y-104854943D01*
X134046315Y-104854943D02*
X133960601Y-104812086D01*
X133917744Y-104769229D01*
X133874887Y-104683514D01*
X133874887Y-104426371D01*
X133917744Y-104340657D01*
X133960601Y-104297800D01*
X134046315Y-104254943D01*
X134174887Y-104254943D01*
X134260601Y-104297800D01*
X134303458Y-104340657D01*
X134346315Y-104426371D01*
X134346315Y-104683514D01*
X134303458Y-104769229D01*
X134260601Y-104812086D01*
X134174887Y-104854943D01*
X134046315Y-104854943D01*
X134732030Y-104854943D02*
X134732030Y-104254943D01*
X134732030Y-104426371D02*
X134774887Y-104340657D01*
X134817744Y-104297800D01*
X134903458Y-104254943D01*
X134989173Y-104254943D01*
X136232030Y-105197800D02*
X136189172Y-105154943D01*
X136103458Y-105026371D01*
X136060601Y-104940657D01*
X136017744Y-104812086D01*
X135974887Y-104597800D01*
X135974887Y-104426371D01*
X136017744Y-104212086D01*
X136060601Y-104083514D01*
X136103458Y-103997800D01*
X136189172Y-103869229D01*
X136232030Y-103826371D01*
X137089172Y-104854943D02*
X136789172Y-104426371D01*
X136574887Y-104854943D02*
X136574887Y-103954943D01*
X136917744Y-103954943D01*
X137003458Y-103997800D01*
X137046315Y-104040657D01*
X137089172Y-104126371D01*
X137089172Y-104254943D01*
X137046315Y-104340657D01*
X137003458Y-104383514D01*
X136917744Y-104426371D01*
X136574887Y-104426371D01*
X137774887Y-104383514D02*
X137474887Y-104383514D01*
X137474887Y-104854943D02*
X137474887Y-103954943D01*
X137903458Y-103954943D01*
X138246316Y-104854943D02*
X138246316Y-103954943D01*
X138546316Y-104597800D01*
X138846316Y-103954943D01*
X138846316Y-104854943D01*
X139317744Y-104854943D02*
X139489172Y-104854943D01*
X139574887Y-104812086D01*
X139617744Y-104769229D01*
X139703458Y-104640657D01*
X139746315Y-104469229D01*
X139746315Y-104126371D01*
X139703458Y-104040657D01*
X139660601Y-103997800D01*
X139574887Y-103954943D01*
X139403458Y-103954943D01*
X139317744Y-103997800D01*
X139274887Y-104040657D01*
X139232030Y-104126371D01*
X139232030Y-104340657D01*
X139274887Y-104426371D01*
X139317744Y-104469229D01*
X139403458Y-104512086D01*
X139574887Y-104512086D01*
X139660601Y-104469229D01*
X139703458Y-104426371D01*
X139746315Y-104340657D01*
X140046315Y-104854943D02*
X140517744Y-104254943D01*
X140046315Y-104254943D02*
X140517744Y-104854943D01*
X140774886Y-105197800D02*
X140817744Y-105154943D01*
X140903458Y-105026371D01*
X140946315Y-104940657D01*
X140989172Y-104812086D01*
X141032029Y-104597800D01*
X141032029Y-104426371D01*
X140989172Y-104212086D01*
X140946315Y-104083514D01*
X140903458Y-103997800D01*
X140817744Y-103869229D01*
X140774886Y-103826371D01*
D12*
X144210200Y-107039533D02*
X144310200Y-107072867D01*
X144476867Y-107072867D01*
X144543534Y-107039533D01*
X144576867Y-107006200D01*
X144610200Y-106939533D01*
X144610200Y-106872867D01*
X144576867Y-106806200D01*
X144543534Y-106772867D01*
X144476867Y-106739533D01*
X144343534Y-106706200D01*
X144276867Y-106672867D01*
X144243534Y-106639533D01*
X144210200Y-106572867D01*
X144210200Y-106506200D01*
X144243534Y-106439533D01*
X144276867Y-106406200D01*
X144343534Y-106372867D01*
X144510200Y-106372867D01*
X144610200Y-106406200D01*
X145310201Y-107006200D02*
X145276867Y-107039533D01*
X145176867Y-107072867D01*
X145110201Y-107072867D01*
X145010201Y-107039533D01*
X144943534Y-106972867D01*
X144910201Y-106906200D01*
X144876867Y-106772867D01*
X144876867Y-106672867D01*
X144910201Y-106539533D01*
X144943534Y-106472867D01*
X145010201Y-106406200D01*
X145110201Y-106372867D01*
X145176867Y-106372867D01*
X145276867Y-106406200D01*
X145310201Y-106439533D01*
X145610201Y-107072867D02*
X145610201Y-106372867D01*
X146010201Y-107072867D02*
X145710201Y-106672867D01*
X146010201Y-106372867D02*
X145610201Y-106772867D01*
X143224429Y-104465381D02*
X143224429Y-103465381D01*
X143557763Y-104179667D01*
X143891096Y-103465381D01*
X143891096Y-104465381D01*
X144367286Y-104465381D02*
X144367286Y-103798714D01*
X144367286Y-103465381D02*
X144319667Y-103513000D01*
X144367286Y-103560619D01*
X144414905Y-103513000D01*
X144367286Y-103465381D01*
X144367286Y-103560619D01*
X144795857Y-104417762D02*
X144891095Y-104465381D01*
X145081571Y-104465381D01*
X145176810Y-104417762D01*
X145224429Y-104322524D01*
X145224429Y-104274905D01*
X145176810Y-104179667D01*
X145081571Y-104132048D01*
X144938714Y-104132048D01*
X144843476Y-104084429D01*
X144795857Y-103989190D01*
X144795857Y-103941571D01*
X144843476Y-103846333D01*
X144938714Y-103798714D01*
X145081571Y-103798714D01*
X145176810Y-103846333D01*
X145795857Y-104465381D02*
X145700619Y-104417762D01*
X145653000Y-104370143D01*
X145605381Y-104274905D01*
X145605381Y-103989190D01*
X145653000Y-103893952D01*
X145700619Y-103846333D01*
X145795857Y-103798714D01*
X145938715Y-103798714D01*
X146033953Y-103846333D01*
X146081572Y-103893952D01*
X146129191Y-103989190D01*
X146129191Y-104274905D01*
X146081572Y-104370143D01*
X146033953Y-104417762D01*
X145938715Y-104465381D01*
X145795857Y-104465381D01*
X143326029Y-101950781D02*
X143326029Y-100950781D01*
X143659363Y-101665067D01*
X143992696Y-100950781D01*
X143992696Y-101950781D01*
X144611743Y-101950781D02*
X144516505Y-101903162D01*
X144468886Y-101855543D01*
X144421267Y-101760305D01*
X144421267Y-101474590D01*
X144468886Y-101379352D01*
X144516505Y-101331733D01*
X144611743Y-101284114D01*
X144754601Y-101284114D01*
X144849839Y-101331733D01*
X144897458Y-101379352D01*
X144945077Y-101474590D01*
X144945077Y-101760305D01*
X144897458Y-101855543D01*
X144849839Y-101903162D01*
X144754601Y-101950781D01*
X144611743Y-101950781D01*
X145326029Y-101903162D02*
X145421267Y-101950781D01*
X145611743Y-101950781D01*
X145706982Y-101903162D01*
X145754601Y-101807924D01*
X145754601Y-101760305D01*
X145706982Y-101665067D01*
X145611743Y-101617448D01*
X145468886Y-101617448D01*
X145373648Y-101569829D01*
X145326029Y-101474590D01*
X145326029Y-101426971D01*
X145373648Y-101331733D01*
X145468886Y-101284114D01*
X145611743Y-101284114D01*
X145706982Y-101331733D01*
X146183172Y-101950781D02*
X146183172Y-101284114D01*
X146183172Y-100950781D02*
X146135553Y-100998400D01*
X146183172Y-101046019D01*
X146230791Y-100998400D01*
X146183172Y-100950781D01*
X146183172Y-101046019D01*
X143567305Y-99588581D02*
X143567305Y-98588581D01*
X144138734Y-99588581D01*
X144138734Y-98588581D01*
X144567305Y-99540962D02*
X144710162Y-99588581D01*
X144948258Y-99588581D01*
X145043496Y-99540962D01*
X145091115Y-99493343D01*
X145138734Y-99398105D01*
X145138734Y-99302867D01*
X145091115Y-99207629D01*
X145043496Y-99160010D01*
X144948258Y-99112390D01*
X144757781Y-99064771D01*
X144662543Y-99017152D01*
X144614924Y-98969533D01*
X144567305Y-98874295D01*
X144567305Y-98779057D01*
X144614924Y-98683819D01*
X144662543Y-98636200D01*
X144757781Y-98588581D01*
X144995877Y-98588581D01*
X145138734Y-98636200D01*
X145519686Y-99540962D02*
X145662543Y-99588581D01*
X145900639Y-99588581D01*
X145995877Y-99540962D01*
X146043496Y-99493343D01*
X146091115Y-99398105D01*
X146091115Y-99302867D01*
X146043496Y-99207629D01*
X145995877Y-99160010D01*
X145900639Y-99112390D01*
X145710162Y-99064771D01*
X145614924Y-99017152D01*
X145567305Y-98969533D01*
X145519686Y-98874295D01*
X145519686Y-98779057D01*
X145567305Y-98683819D01*
X145614924Y-98636200D01*
X145710162Y-98588581D01*
X145948258Y-98588581D01*
X146091115Y-98636200D01*
X143895914Y-97051762D02*
X144038771Y-97099381D01*
X144276867Y-97099381D01*
X144372105Y-97051762D01*
X144419724Y-97004143D01*
X144467343Y-96908905D01*
X144467343Y-96813667D01*
X144419724Y-96718429D01*
X144372105Y-96670810D01*
X144276867Y-96623190D01*
X144086390Y-96575571D01*
X143991152Y-96527952D01*
X143943533Y-96480333D01*
X143895914Y-96385095D01*
X143895914Y-96289857D01*
X143943533Y-96194619D01*
X143991152Y-96147000D01*
X144086390Y-96099381D01*
X144324486Y-96099381D01*
X144467343Y-96147000D01*
X144895914Y-97099381D02*
X144895914Y-96099381D01*
X145134009Y-96099381D01*
X145276867Y-96147000D01*
X145372105Y-96242238D01*
X145419724Y-96337476D01*
X145467343Y-96527952D01*
X145467343Y-96670810D01*
X145419724Y-96861286D01*
X145372105Y-96956524D01*
X145276867Y-97051762D01*
X145134009Y-97099381D01*
X144895914Y-97099381D01*
X145848295Y-96813667D02*
X146324486Y-96813667D01*
X145753057Y-97099381D02*
X146086390Y-96099381D01*
X146419724Y-97099381D01*
X143919724Y-94537162D02*
X144062581Y-94584781D01*
X144300677Y-94584781D01*
X144395915Y-94537162D01*
X144443534Y-94489543D01*
X144491153Y-94394305D01*
X144491153Y-94299067D01*
X144443534Y-94203829D01*
X144395915Y-94156210D01*
X144300677Y-94108590D01*
X144110200Y-94060971D01*
X144014962Y-94013352D01*
X143967343Y-93965733D01*
X143919724Y-93870495D01*
X143919724Y-93775257D01*
X143967343Y-93680019D01*
X144014962Y-93632400D01*
X144110200Y-93584781D01*
X144348296Y-93584781D01*
X144491153Y-93632400D01*
X145491153Y-94489543D02*
X145443534Y-94537162D01*
X145300677Y-94584781D01*
X145205439Y-94584781D01*
X145062581Y-94537162D01*
X144967343Y-94441924D01*
X144919724Y-94346686D01*
X144872105Y-94156210D01*
X144872105Y-94013352D01*
X144919724Y-93822876D01*
X144967343Y-93727638D01*
X145062581Y-93632400D01*
X145205439Y-93584781D01*
X145300677Y-93584781D01*
X145443534Y-93632400D01*
X145491153Y-93680019D01*
X146395915Y-94584781D02*
X145919724Y-94584781D01*
X145919724Y-93584781D01*
X144068896Y-90990800D02*
X143973658Y-90943181D01*
X143830801Y-90943181D01*
X143687943Y-90990800D01*
X143592705Y-91086038D01*
X143545086Y-91181276D01*
X143497467Y-91371752D01*
X143497467Y-91514610D01*
X143545086Y-91705086D01*
X143592705Y-91800324D01*
X143687943Y-91895562D01*
X143830801Y-91943181D01*
X143926039Y-91943181D01*
X144068896Y-91895562D01*
X144116515Y-91847943D01*
X144116515Y-91514610D01*
X143926039Y-91514610D01*
X144545086Y-91943181D02*
X144545086Y-90943181D01*
X145116515Y-91943181D01*
X145116515Y-90943181D01*
X145592705Y-91943181D02*
X145592705Y-90943181D01*
X145830800Y-90943181D01*
X145973658Y-90990800D01*
X146068896Y-91086038D01*
X146116515Y-91181276D01*
X146164134Y-91371752D01*
X146164134Y-91514610D01*
X146116515Y-91705086D01*
X146068896Y-91800324D01*
X145973658Y-91895562D01*
X145830800Y-91943181D01*
X145592705Y-91943181D01*
X126106686Y-107222486D02*
X125856686Y-106865343D01*
X125678114Y-107222486D02*
X125678114Y-106472486D01*
X125963829Y-106472486D01*
X126035257Y-106508200D01*
X126070972Y-106543914D01*
X126106686Y-106615343D01*
X126106686Y-106722486D01*
X126070972Y-106793914D01*
X126035257Y-106829629D01*
X125963829Y-106865343D01*
X125678114Y-106865343D01*
X126392400Y-107186771D02*
X126499543Y-107222486D01*
X126678114Y-107222486D01*
X126749543Y-107186771D01*
X126785257Y-107151057D01*
X126820972Y-107079629D01*
X126820972Y-107008200D01*
X126785257Y-106936771D01*
X126749543Y-106901057D01*
X126678114Y-106865343D01*
X126535257Y-106829629D01*
X126463829Y-106793914D01*
X126428114Y-106758200D01*
X126392400Y-106686771D01*
X126392400Y-106615343D01*
X126428114Y-106543914D01*
X126463829Y-106508200D01*
X126535257Y-106472486D01*
X126713829Y-106472486D01*
X126820972Y-106508200D01*
X127035258Y-106472486D02*
X127463829Y-106472486D01*
X127249543Y-107222486D02*
X127249543Y-106472486D01*
X125726143Y-103780086D02*
X126190429Y-103780086D01*
X125940429Y-104065800D01*
X126047571Y-104065800D01*
X126119000Y-104101514D01*
X126154714Y-104137229D01*
X126190429Y-104208657D01*
X126190429Y-104387229D01*
X126154714Y-104458657D01*
X126119000Y-104494371D01*
X126047571Y-104530086D01*
X125833286Y-104530086D01*
X125761857Y-104494371D01*
X125726143Y-104458657D01*
X126440429Y-104030086D02*
X126619000Y-104530086D01*
X126797572Y-104030086D01*
X127011858Y-103780086D02*
X127476144Y-103780086D01*
X127226144Y-104065800D01*
X127333286Y-104065800D01*
X127404715Y-104101514D01*
X127440429Y-104137229D01*
X127476144Y-104208657D01*
X127476144Y-104387229D01*
X127440429Y-104458657D01*
X127404715Y-104494371D01*
X127333286Y-104530086D01*
X127119001Y-104530086D01*
X127047572Y-104494371D01*
X127011858Y-104458657D01*
X125938428Y-102244086D02*
X125938428Y-101494086D01*
X126117000Y-101494086D01*
X126224143Y-101529800D01*
X126295571Y-101601229D01*
X126331286Y-101672657D01*
X126367000Y-101815514D01*
X126367000Y-101922657D01*
X126331286Y-102065514D01*
X126295571Y-102136943D01*
X126224143Y-102208371D01*
X126117000Y-102244086D01*
X125938428Y-102244086D01*
X127045571Y-101494086D02*
X126688428Y-101494086D01*
X126652714Y-101851229D01*
X126688428Y-101815514D01*
X126759857Y-101779800D01*
X126938428Y-101779800D01*
X127009857Y-101815514D01*
X127045571Y-101851229D01*
X127081286Y-101922657D01*
X127081286Y-102101229D01*
X127045571Y-102172657D01*
X127009857Y-102208371D01*
X126938428Y-102244086D01*
X126759857Y-102244086D01*
X126688428Y-102208371D01*
X126652714Y-102172657D01*
X125887628Y-99348486D02*
X125887628Y-98598486D01*
X126066200Y-98598486D01*
X126173343Y-98634200D01*
X126244771Y-98705629D01*
X126280486Y-98777057D01*
X126316200Y-98919914D01*
X126316200Y-99027057D01*
X126280486Y-99169914D01*
X126244771Y-99241343D01*
X126173343Y-99312771D01*
X126066200Y-99348486D01*
X125887628Y-99348486D01*
X126959057Y-98848486D02*
X126959057Y-99348486D01*
X126780486Y-98562771D02*
X126601914Y-99098486D01*
X127066200Y-99098486D01*
X125938428Y-96884686D02*
X125938428Y-96134686D01*
X126117000Y-96134686D01*
X126224143Y-96170400D01*
X126295571Y-96241829D01*
X126331286Y-96313257D01*
X126367000Y-96456114D01*
X126367000Y-96563257D01*
X126331286Y-96706114D01*
X126295571Y-96777543D01*
X126224143Y-96848971D01*
X126117000Y-96884686D01*
X125938428Y-96884686D01*
X126617000Y-96134686D02*
X127081286Y-96134686D01*
X126831286Y-96420400D01*
X126938428Y-96420400D01*
X127009857Y-96456114D01*
X127045571Y-96491829D01*
X127081286Y-96563257D01*
X127081286Y-96741829D01*
X127045571Y-96813257D01*
X127009857Y-96848971D01*
X126938428Y-96884686D01*
X126724143Y-96884686D01*
X126652714Y-96848971D01*
X126617000Y-96813257D01*
X125913028Y-94319286D02*
X125913028Y-93569286D01*
X126091600Y-93569286D01*
X126198743Y-93605000D01*
X126270171Y-93676429D01*
X126305886Y-93747857D01*
X126341600Y-93890714D01*
X126341600Y-93997857D01*
X126305886Y-94140714D01*
X126270171Y-94212143D01*
X126198743Y-94283571D01*
X126091600Y-94319286D01*
X125913028Y-94319286D01*
X126627314Y-93640714D02*
X126663028Y-93605000D01*
X126734457Y-93569286D01*
X126913028Y-93569286D01*
X126984457Y-93605000D01*
X127020171Y-93640714D01*
X127055886Y-93712143D01*
X127055886Y-93783571D01*
X127020171Y-93890714D01*
X126591600Y-94319286D01*
X127055886Y-94319286D01*
X125913028Y-91677686D02*
X125913028Y-90927686D01*
X126091600Y-90927686D01*
X126198743Y-90963400D01*
X126270171Y-91034829D01*
X126305886Y-91106257D01*
X126341600Y-91249114D01*
X126341600Y-91356257D01*
X126305886Y-91499114D01*
X126270171Y-91570543D01*
X126198743Y-91641971D01*
X126091600Y-91677686D01*
X125913028Y-91677686D01*
X127055886Y-91677686D02*
X126627314Y-91677686D01*
X126841600Y-91677686D02*
X126841600Y-90927686D01*
X126770171Y-91034829D01*
X126698743Y-91106257D01*
X126627314Y-91141971D01*
X126014628Y-89569486D02*
X126014628Y-88819486D01*
X126193200Y-88819486D01*
X126300343Y-88855200D01*
X126371771Y-88926629D01*
X126407486Y-88998057D01*
X126443200Y-89140914D01*
X126443200Y-89248057D01*
X126407486Y-89390914D01*
X126371771Y-89462343D01*
X126300343Y-89533771D01*
X126193200Y-89569486D01*
X126014628Y-89569486D01*
X126907486Y-88819486D02*
X126978914Y-88819486D01*
X127050343Y-88855200D01*
X127086057Y-88890914D01*
X127121771Y-88962343D01*
X127157486Y-89105200D01*
X127157486Y-89283771D01*
X127121771Y-89426629D01*
X127086057Y-89498057D01*
X127050343Y-89533771D01*
X126978914Y-89569486D01*
X126907486Y-89569486D01*
X126836057Y-89533771D01*
X126800343Y-89498057D01*
X126764628Y-89426629D01*
X126728914Y-89283771D01*
X126728914Y-89105200D01*
X126764628Y-88962343D01*
X126800343Y-88890914D01*
X126836057Y-88855200D01*
X126907486Y-88819486D01*
D13*
X131149600Y-91791600D02*
X129149600Y-91791600D01*
X129149600Y-93831600D02*
X131149600Y-93831600D01*
X138871200Y-98827400D02*
X136871200Y-98827400D01*
X136871200Y-100867400D02*
X138871200Y-100867400D01*
X138871200Y-95931800D02*
X136871200Y-95931800D01*
X136871200Y-97971800D02*
X138871200Y-97971800D01*
X138972800Y-91893200D02*
X136972800Y-91893200D01*
X136972800Y-93933200D02*
X138972800Y-93933200D01*
X145990000Y-90170000D02*
X145990000Y-108010000D01*
X145990000Y-108010000D02*
X148650000Y-108010000D01*
X148650000Y-108010000D02*
X148650000Y-90170000D01*
X148650000Y-90170000D02*
X145990000Y-90170000D01*
X145990000Y-88900000D02*
X145990000Y-87570000D01*
X145990000Y-87570000D02*
X147320000Y-87570000D01*
X123130000Y-90170000D02*
X123130000Y-108010000D01*
X123130000Y-108010000D02*
X125790000Y-108010000D01*
X125790000Y-108010000D02*
X125790000Y-90170000D01*
X125790000Y-90170000D02*
X123130000Y-90170000D01*
X123130000Y-88900000D02*
X123130000Y-87570000D01*
X123130000Y-87570000D02*
X124460000Y-87570000D01*
X129071800Y-99577800D02*
X130871800Y-99577800D01*
X130871800Y-96357800D02*
X128421800Y-96357800D01*
D12*
X143256000Y-110388400D02*
X148844000Y-110388400D01*
X121920000Y-110388400D02*
X127000000Y-110388400D01*
X127000000Y-110388400D02*
X127000000Y-109372400D01*
X127000000Y-109372400D02*
X143256000Y-109372400D01*
X143256000Y-109372400D02*
X143256000Y-110388400D01*
X122936000Y-90068400D02*
X147828000Y-90068400D01*
X147828000Y-90068400D02*
X147828000Y-100736400D01*
X147828000Y-100736400D02*
X122936000Y-100736400D01*
X122936000Y-100736400D02*
X122936000Y-90068400D01*
X121920000Y-88036400D02*
X148844000Y-88036400D01*
X148844000Y-88036400D02*
X148844000Y-106324400D01*
X148844000Y-106324400D02*
X121920000Y-106324400D01*
X121920000Y-106324400D02*
X121920000Y-88036400D01*
X148455923Y-108864400D02*
G75*
G03X148455923Y-108864400I-1135923J0D01*
G01*
X124579923Y-108864400D02*
G75*
G03X124579923Y-108864400I-1135923J0D01*
G01*
X124579923Y-84988400D02*
G75*
G03X124579923Y-84988400I-1135923J0D01*
G01*
X148455923Y-84988400D02*
G75*
G03X148455923Y-84988400I-1135923J0D01*
G01*
X121920000Y-110388400D02*
X121920000Y-83464400D01*
X121920000Y-83464400D02*
X148844000Y-83464400D01*
X148844000Y-83464400D02*
X148844000Y-110388400D01*
D13*
X141932000Y-96148400D02*
X141932000Y-94148400D01*
X144072000Y-94148400D02*
X144072000Y-96148400D01*
D12*
X130008334Y-91720943D02*
X129960715Y-91768562D01*
X129817858Y-91816181D01*
X129722620Y-91816181D01*
X129579762Y-91768562D01*
X129484524Y-91673324D01*
X129436905Y-91578086D01*
X129389286Y-91387610D01*
X129389286Y-91244752D01*
X129436905Y-91054276D01*
X129484524Y-90959038D01*
X129579762Y-90863800D01*
X129722620Y-90816181D01*
X129817858Y-90816181D01*
X129960715Y-90863800D01*
X130008334Y-90911419D01*
X130960715Y-91816181D02*
X130389286Y-91816181D01*
X130675000Y-91816181D02*
X130675000Y-90816181D01*
X130579762Y-90959038D01*
X130484524Y-91054276D01*
X130389286Y-91101895D01*
X139990534Y-102109543D02*
X139942915Y-102157162D01*
X139800058Y-102204781D01*
X139704820Y-102204781D01*
X139561962Y-102157162D01*
X139466724Y-102061924D01*
X139419105Y-101966686D01*
X139371486Y-101776210D01*
X139371486Y-101633352D01*
X139419105Y-101442876D01*
X139466724Y-101347638D01*
X139561962Y-101252400D01*
X139704820Y-101204781D01*
X139800058Y-101204781D01*
X139942915Y-101252400D01*
X139990534Y-101300019D01*
X140371486Y-101300019D02*
X140419105Y-101252400D01*
X140514343Y-101204781D01*
X140752439Y-101204781D01*
X140847677Y-101252400D01*
X140895296Y-101300019D01*
X140942915Y-101395257D01*
X140942915Y-101490495D01*
X140895296Y-101633352D01*
X140323867Y-102204781D01*
X140942915Y-102204781D01*
X133386534Y-97385143D02*
X133338915Y-97432762D01*
X133196058Y-97480381D01*
X133100820Y-97480381D01*
X132957962Y-97432762D01*
X132862724Y-97337524D01*
X132815105Y-97242286D01*
X132767486Y-97051810D01*
X132767486Y-96908952D01*
X132815105Y-96718476D01*
X132862724Y-96623238D01*
X132957962Y-96528000D01*
X133100820Y-96480381D01*
X133196058Y-96480381D01*
X133338915Y-96528000D01*
X133386534Y-96575619D01*
X133719867Y-96480381D02*
X134338915Y-96480381D01*
X134005581Y-96861333D01*
X134148439Y-96861333D01*
X134243677Y-96908952D01*
X134291296Y-96956571D01*
X134338915Y-97051810D01*
X134338915Y-97289905D01*
X134291296Y-97385143D01*
X134243677Y-97432762D01*
X134148439Y-97480381D01*
X133862724Y-97480381D01*
X133767486Y-97432762D01*
X133719867Y-97385143D01*
X139685734Y-91873343D02*
X139638115Y-91920962D01*
X139495258Y-91968581D01*
X139400020Y-91968581D01*
X139257162Y-91920962D01*
X139161924Y-91825724D01*
X139114305Y-91730486D01*
X139066686Y-91540010D01*
X139066686Y-91397152D01*
X139114305Y-91206676D01*
X139161924Y-91111438D01*
X139257162Y-91016200D01*
X139400020Y-90968581D01*
X139495258Y-90968581D01*
X139638115Y-91016200D01*
X139685734Y-91063819D01*
X140542877Y-91301914D02*
X140542877Y-91968581D01*
X140304781Y-90920962D02*
X140066686Y-91635248D01*
X140685734Y-91635248D01*
X146296191Y-86927143D02*
X146248572Y-86974762D01*
X146105715Y-87022381D01*
X146010477Y-87022381D01*
X145867619Y-86974762D01*
X145772381Y-86879524D01*
X145724762Y-86784286D01*
X145677143Y-86593810D01*
X145677143Y-86450952D01*
X145724762Y-86260476D01*
X145772381Y-86165238D01*
X145867619Y-86070000D01*
X146010477Y-86022381D01*
X146105715Y-86022381D01*
X146248572Y-86070000D01*
X146296191Y-86117619D01*
X146724762Y-86355714D02*
X146724762Y-87022381D01*
X146724762Y-86450952D02*
X146772381Y-86403333D01*
X146867619Y-86355714D01*
X147010477Y-86355714D01*
X147105715Y-86403333D01*
X147153334Y-86498571D01*
X147153334Y-87022381D01*
X147534286Y-87022381D02*
X148058096Y-86355714D01*
X147534286Y-86355714D02*
X148058096Y-87022381D01*
X148962858Y-87022381D02*
X148391429Y-87022381D01*
X148677143Y-87022381D02*
X148677143Y-86022381D01*
X148581905Y-86165238D01*
X148486667Y-86260476D01*
X148391429Y-86308095D01*
X123436191Y-86927143D02*
X123388572Y-86974762D01*
X123245715Y-87022381D01*
X123150477Y-87022381D01*
X123007619Y-86974762D01*
X122912381Y-86879524D01*
X122864762Y-86784286D01*
X122817143Y-86593810D01*
X122817143Y-86450952D01*
X122864762Y-86260476D01*
X122912381Y-86165238D01*
X123007619Y-86070000D01*
X123150477Y-86022381D01*
X123245715Y-86022381D01*
X123388572Y-86070000D01*
X123436191Y-86117619D01*
X123864762Y-86355714D02*
X123864762Y-87022381D01*
X123864762Y-86450952D02*
X123912381Y-86403333D01*
X124007619Y-86355714D01*
X124150477Y-86355714D01*
X124245715Y-86403333D01*
X124293334Y-86498571D01*
X124293334Y-87022381D01*
X124674286Y-87022381D02*
X125198096Y-86355714D01*
X124674286Y-86355714D02*
X125198096Y-87022381D01*
X125531429Y-86117619D02*
X125579048Y-86070000D01*
X125674286Y-86022381D01*
X125912382Y-86022381D01*
X126007620Y-86070000D01*
X126055239Y-86117619D01*
X126102858Y-86212857D01*
X126102858Y-86308095D01*
X126055239Y-86450952D01*
X125483810Y-87022381D01*
X126102858Y-87022381D01*
X127133695Y-100512571D02*
X127467029Y-100512571D01*
X127609886Y-101036381D02*
X127133695Y-101036381D01*
X127133695Y-100036381D01*
X127609886Y-100036381D01*
X128467029Y-100036381D02*
X128276552Y-100036381D01*
X128181314Y-100084000D01*
X128133695Y-100131619D01*
X128038457Y-100274476D01*
X127990838Y-100464952D01*
X127990838Y-100845905D01*
X128038457Y-100941143D01*
X128086076Y-100988762D01*
X128181314Y-101036381D01*
X128371791Y-101036381D01*
X128467029Y-100988762D01*
X128514648Y-100941143D01*
X128562267Y-100845905D01*
X128562267Y-100607810D01*
X128514648Y-100512571D01*
X128467029Y-100464952D01*
X128371791Y-100417333D01*
X128181314Y-100417333D01*
X128086076Y-100464952D01*
X128038457Y-100512571D01*
X127990838Y-100607810D01*
X129419410Y-100369714D02*
X129419410Y-101036381D01*
X129181314Y-99988762D02*
X128943219Y-100703048D01*
X129562267Y-100703048D01*
X129705124Y-101131619D02*
X130467029Y-101131619D01*
X130705124Y-101036381D02*
X130705124Y-100036381D01*
X131181314Y-101036381D02*
X131181314Y-100036381D01*
X131419409Y-100036381D01*
X131562267Y-100084000D01*
X131657505Y-100179238D01*
X131705124Y-100274476D01*
X131752743Y-100464952D01*
X131752743Y-100607810D01*
X131705124Y-100798286D01*
X131657505Y-100893524D01*
X131562267Y-100988762D01*
X131419409Y-101036381D01*
X131181314Y-101036381D01*
X132705124Y-101036381D02*
X132133695Y-101036381D01*
X132419409Y-101036381D02*
X132419409Y-100036381D01*
X132324171Y-100179238D01*
X132228933Y-100274476D01*
X132133695Y-100322095D01*
X131693114Y-87345781D02*
X131693114Y-86345781D01*
X132121685Y-86441019D02*
X132169304Y-86393400D01*
X132264542Y-86345781D01*
X132502638Y-86345781D01*
X132597876Y-86393400D01*
X132645495Y-86441019D01*
X132693114Y-86536257D01*
X132693114Y-86631495D01*
X132645495Y-86774352D01*
X132074066Y-87345781D01*
X132693114Y-87345781D01*
X133693114Y-87250543D02*
X133645495Y-87298162D01*
X133502638Y-87345781D01*
X133407400Y-87345781D01*
X133264542Y-87298162D01*
X133169304Y-87202924D01*
X133121685Y-87107686D01*
X133074066Y-86917210D01*
X133074066Y-86774352D01*
X133121685Y-86583876D01*
X133169304Y-86488638D01*
X133264542Y-86393400D01*
X133407400Y-86345781D01*
X133502638Y-86345781D01*
X133645495Y-86393400D01*
X133693114Y-86441019D01*
X133883590Y-87441019D02*
X134645495Y-87441019D01*
X135074066Y-86345781D02*
X135264543Y-86345781D01*
X135359781Y-86393400D01*
X135455019Y-86488638D01*
X135502638Y-86679114D01*
X135502638Y-87012448D01*
X135455019Y-87202924D01*
X135359781Y-87298162D01*
X135264543Y-87345781D01*
X135074066Y-87345781D01*
X134978828Y-87298162D01*
X134883590Y-87202924D01*
X134835971Y-87012448D01*
X134835971Y-86679114D01*
X134883590Y-86488638D01*
X134978828Y-86393400D01*
X135074066Y-86345781D01*
X136407400Y-87345781D02*
X135931209Y-87345781D01*
X135931209Y-86345781D01*
X136740733Y-86821971D02*
X137074067Y-86821971D01*
X137216924Y-87345781D02*
X136740733Y-87345781D01*
X136740733Y-86345781D01*
X137216924Y-86345781D01*
X137645495Y-87345781D02*
X137645495Y-86345781D01*
X137883590Y-86345781D01*
X138026448Y-86393400D01*
X138121686Y-86488638D01*
X138169305Y-86583876D01*
X138216924Y-86774352D01*
X138216924Y-86917210D01*
X138169305Y-87107686D01*
X138121686Y-87202924D01*
X138026448Y-87298162D01*
X137883590Y-87345781D01*
X137645495Y-87345781D01*
X139169305Y-87345781D02*
X138597876Y-87345781D01*
X138883590Y-87345781D02*
X138883590Y-86345781D01*
X138788352Y-86488638D01*
X138693114Y-86583876D01*
X138597876Y-86631495D01*
X141879581Y-95010266D02*
X141403390Y-95343600D01*
X141879581Y-95581695D02*
X140879581Y-95581695D01*
X140879581Y-95200742D01*
X140927200Y-95105504D01*
X140974819Y-95057885D01*
X141070057Y-95010266D01*
X141212914Y-95010266D01*
X141308152Y-95057885D01*
X141355771Y-95105504D01*
X141403390Y-95200742D01*
X141403390Y-95581695D01*
X141879581Y-94057885D02*
X141879581Y-94629314D01*
X141879581Y-94343600D02*
X140879581Y-94343600D01*
X141022438Y-94438838D01*
X141117676Y-94534076D01*
X141165295Y-94629314D01*
M02*
